<svg xmlns="http://www.w3.org/2000/svg" xmlns:xlink="http://www.w3.org/1999/xlink" width="723" zoomAndPan="magnify" viewBox="0 0 542.25 917.249989" height="1223" preserveAspectRatio="xMidYMid meet" version="1.0"><defs><clipPath id="46f4d159d8"><path d="M 161 486 L 380 486 L 380 707 L 161 707 Z M 161 486 " clip-rule="nonzero"/></clipPath><clipPath id="e9da3f0e56"><path d="M 403.722656 384.199219 L 541.195312 777.277344 L 145.289062 915.738281 L 7.816406 522.664062 Z M 403.722656 384.199219 " clip-rule="nonzero"/></clipPath><clipPath id="084a9be309"><path d="M 403.722656 384.199219 L 541.195312 777.277344 L 145.289062 915.738281 L 7.816406 522.664062 Z M 403.722656 384.199219 " clip-rule="nonzero"/></clipPath><clipPath id="4c27c9d4ad"><path d="M 150 823 L 215 823 L 215 888 L 150 888 Z M 150 823 " clip-rule="nonzero"/></clipPath><clipPath id="13589d95bc"><path d="M 403.722656 384.199219 L 541.195312 777.277344 L 145.289062 915.738281 L 7.816406 522.664062 Z M 403.722656 384.199219 " clip-rule="nonzero"/></clipPath><clipPath id="024319f391"><path d="M 403.722656 384.199219 L 541.195312 777.277344 L 145.289062 915.738281 L 7.816406 522.664062 Z M 403.722656 384.199219 " clip-rule="nonzero"/></clipPath><clipPath id="c2fdfa4ede"><path d="M 299 597 L 514 597 L 514 816 L 299 816 Z M 299 597 " clip-rule="nonzero"/></clipPath><clipPath id="cdff0bc7e6"><path d="M 403.722656 384.199219 L 541.195312 777.277344 L 145.289062 915.738281 L 7.816406 522.664062 Z M 403.722656 384.199219 " clip-rule="nonzero"/></clipPath><clipPath id="b2f0dde45d"><path d="M 403.722656 384.199219 L 541.195312 777.277344 L 145.289062 915.738281 L 7.816406 522.664062 Z M 403.722656 384.199219 " clip-rule="nonzero"/></clipPath><clipPath id="431b34dcac"><path d="M 468.421875 569.753906 L 540.007812 774.445312 L 338.972656 844.757812 L 267.382812 640.0625 Z M 468.421875 569.753906 " clip-rule="nonzero"/></clipPath><clipPath id="d6f17b628b"><path d="M 304 604 L 506 604 L 506 809 L 304 809 Z M 304 604 " clip-rule="nonzero"/></clipPath><clipPath id="f7345b7ba2"><path d="M 403.722656 384.199219 L 541.195312 777.277344 L 145.289062 915.738281 L 7.816406 522.664062 Z M 403.722656 384.199219 " clip-rule="nonzero"/></clipPath><clipPath id="f459e730d4"><path d="M 403.722656 384.199219 L 541.195312 777.277344 L 145.289062 915.738281 L 7.816406 522.664062 Z M 403.722656 384.199219 " clip-rule="nonzero"/></clipPath><clipPath id="363e5be946"><path d="M 350 650 L 467 650 L 467 768 L 350 768 Z M 350 650 " clip-rule="nonzero"/></clipPath><clipPath id="281955cd94"><path d="M 403.722656 384.199219 L 541.195312 777.277344 L 145.289062 915.738281 L 7.816406 522.664062 Z M 403.722656 384.199219 " clip-rule="nonzero"/></clipPath><clipPath id="794be37e85"><path d="M 403.722656 384.199219 L 541.195312 777.277344 L 145.289062 915.738281 L 7.816406 522.664062 Z M 403.722656 384.199219 " clip-rule="nonzero"/></clipPath><clipPath id="2b59b0b6b4"><path d="M 357 658 L 458 658 L 458 760 L 357 760 Z M 357 658 " clip-rule="nonzero"/></clipPath><clipPath id="ff357753e4"><path d="M 403.722656 384.199219 L 541.195312 777.277344 L 145.289062 915.738281 L 7.816406 522.664062 Z M 403.722656 384.199219 " clip-rule="nonzero"/></clipPath><clipPath id="070219cf5b"><path d="M 403.722656 384.199219 L 541.195312 777.277344 L 145.289062 915.738281 L 7.816406 522.664062 Z M 403.722656 384.199219 " clip-rule="nonzero"/></clipPath><clipPath id="4170be3821"><path d="M 312 614 L 499 614 L 499 804 L 312 804 Z M 312 614 " clip-rule="nonzero"/></clipPath><clipPath id="9d7ba09ed7"><path d="M 403.722656 384.199219 L 541.195312 777.277344 L 145.289062 915.738281 L 7.816406 522.664062 Z M 403.722656 384.199219 " clip-rule="nonzero"/></clipPath><clipPath id="a80f56f6da"><path d="M 403.722656 384.199219 L 541.195312 777.277344 L 145.289062 915.738281 L 7.816406 522.664062 Z M 403.722656 384.199219 " clip-rule="nonzero"/></clipPath><clipPath id="dfcfa90af9"><path d="M 370 673 L 445 673 L 445 747 L 370 747 Z M 370 673 " clip-rule="nonzero"/></clipPath><clipPath id="9b416e6bff"><path d="M 403.722656 384.199219 L 541.195312 777.277344 L 145.289062 915.738281 L 7.816406 522.664062 Z M 403.722656 384.199219 " clip-rule="nonzero"/></clipPath><clipPath id="8e7a60e9b1"><path d="M 403.722656 384.199219 L 541.195312 777.277344 L 145.289062 915.738281 L 7.816406 522.664062 Z M 403.722656 384.199219 " clip-rule="nonzero"/></clipPath><clipPath id="d07f9ed8ee"><path d="M 364 665 L 451 665 L 451 753 L 364 753 Z M 364 665 " clip-rule="nonzero"/></clipPath><clipPath id="0fd23951de"><path d="M 403.722656 384.199219 L 541.195312 777.277344 L 145.289062 915.738281 L 7.816406 522.664062 Z M 403.722656 384.199219 " clip-rule="nonzero"/></clipPath><clipPath id="35d02da9ca"><path d="M 403.722656 384.199219 L 541.195312 777.277344 L 145.289062 915.738281 L 7.816406 522.664062 Z M 403.722656 384.199219 " clip-rule="nonzero"/></clipPath><clipPath id="2b78b57c6e"><path d="M 377 682 L 435 682 L 435 740 L 377 740 Z M 377 682 " clip-rule="nonzero"/></clipPath><clipPath id="2adfbc1610"><path d="M 403.722656 384.199219 L 541.195312 777.277344 L 145.289062 915.738281 L 7.816406 522.664062 Z M 403.722656 384.199219 " clip-rule="nonzero"/></clipPath><clipPath id="f22d2c556d"><path d="M 403.722656 384.199219 L 541.195312 777.277344 L 145.289062 915.738281 L 7.816406 522.664062 Z M 403.722656 384.199219 " clip-rule="nonzero"/></clipPath><clipPath id="71f28d88f4"><path d="M 317 620 L 494 620 L 494 800 L 317 800 Z M 317 620 " clip-rule="nonzero"/></clipPath><clipPath id="552aced5ae"><path d="M 403.722656 384.199219 L 541.195312 777.277344 L 145.289062 915.738281 L 7.816406 522.664062 Z M 403.722656 384.199219 " clip-rule="nonzero"/></clipPath><clipPath id="de2eefa216"><path d="M 403.722656 384.199219 L 541.195312 777.277344 L 145.289062 915.738281 L 7.816406 522.664062 Z M 403.722656 384.199219 " clip-rule="nonzero"/></clipPath><clipPath id="fd8f210648"><path d="M 326 629 L 484 629 L 484 790 L 326 790 Z M 326 629 " clip-rule="nonzero"/></clipPath><clipPath id="fe52428716"><path d="M 403.722656 384.199219 L 541.195312 777.277344 L 145.289062 915.738281 L 7.816406 522.664062 Z M 403.722656 384.199219 " clip-rule="nonzero"/></clipPath><clipPath id="7845ef769f"><path d="M 403.722656 384.199219 L 541.195312 777.277344 L 145.289062 915.738281 L 7.816406 522.664062 Z M 403.722656 384.199219 " clip-rule="nonzero"/></clipPath><clipPath id="3c55e3ce6f"><path d="M 330 635 L 480 635 L 480 787 L 330 787 Z M 330 635 " clip-rule="nonzero"/></clipPath><clipPath id="214bc7ee09"><path d="M 403.722656 384.199219 L 541.195312 777.277344 L 145.289062 915.738281 L 7.816406 522.664062 Z M 403.722656 384.199219 " clip-rule="nonzero"/></clipPath><clipPath id="9c8bef1152"><path d="M 403.722656 384.199219 L 541.195312 777.277344 L 145.289062 915.738281 L 7.816406 522.664062 Z M 403.722656 384.199219 " clip-rule="nonzero"/></clipPath><clipPath id="9d3fcc45a6"><path d="M 336 641 L 477 641 L 477 783 L 336 783 Z M 336 641 " clip-rule="nonzero"/></clipPath><clipPath id="392b2acdb1"><path d="M 403.722656 384.199219 L 541.195312 777.277344 L 145.289062 915.738281 L 7.816406 522.664062 Z M 403.722656 384.199219 " clip-rule="nonzero"/></clipPath><clipPath id="5da9eb538c"><path d="M 403.722656 384.199219 L 541.195312 777.277344 L 145.289062 915.738281 L 7.816406 522.664062 Z M 403.722656 384.199219 " clip-rule="nonzero"/></clipPath><clipPath id="4a2f6c006e"><path d="M 340 645 L 474 645 L 474 778 L 340 778 Z M 340 645 " clip-rule="nonzero"/></clipPath><clipPath id="fcb66c271f"><path d="M 403.722656 384.199219 L 541.195312 777.277344 L 145.289062 915.738281 L 7.816406 522.664062 Z M 403.722656 384.199219 " clip-rule="nonzero"/></clipPath><clipPath id="c62ce93907"><path d="M 403.722656 384.199219 L 541.195312 777.277344 L 145.289062 915.738281 L 7.816406 522.664062 Z M 403.722656 384.199219 " clip-rule="nonzero"/></clipPath><clipPath id="563d77f7e3"><path d="M 343 411 L 402 411 L 402 469 L 343 469 Z M 343 411 " clip-rule="nonzero"/></clipPath><clipPath id="1637b5af28"><path d="M 403.722656 384.199219 L 541.195312 777.277344 L 145.289062 915.738281 L 7.816406 522.664062 Z M 403.722656 384.199219 " clip-rule="nonzero"/></clipPath><clipPath id="4b5b8c78bf"><path d="M 403.722656 384.199219 L 541.195312 777.277344 L 145.289062 915.738281 L 7.816406 522.664062 Z M 403.722656 384.199219 " clip-rule="nonzero"/></clipPath><clipPath id="df733768b8"><path d="M 86 614 L 224 614 L 224 754 L 86 754 Z M 86 614 " clip-rule="nonzero"/></clipPath><clipPath id="8f088560c4"><path d="M 403.722656 384.199219 L 541.195312 777.277344 L 145.289062 915.738281 L 7.816406 522.664062 Z M 403.722656 384.199219 " clip-rule="nonzero"/></clipPath><clipPath id="c35fe5e578"><path d="M 403.722656 384.199219 L 541.195312 777.277344 L 145.289062 915.738281 L 7.816406 522.664062 Z M 403.722656 384.199219 " clip-rule="nonzero"/></clipPath><clipPath id="1f5db871de"><path d="M 199.640625 595.246094 L 245.183594 725.472656 L 114.175781 771.292969 L 68.628906 641.0625 Z M 199.640625 595.246094 " clip-rule="nonzero"/></clipPath><clipPath id="712eaf7ce9"><path d="M 213 156 L 434 156 L 434 374 L 213 374 Z M 213 156 " clip-rule="nonzero"/></clipPath><clipPath id="80cd176cd9"><path d="M 541.269531 390.371094 L 153.796875 542.917969 L 0.148438 152.65625 L 387.625 0.105469 Z M 541.269531 390.371094 " clip-rule="nonzero"/></clipPath><clipPath id="74dcee9138"><path d="M 541.269531 390.371094 L 153.796875 542.917969 L 0.148438 152.65625 L 387.625 0.105469 Z M 541.269531 390.371094 " clip-rule="nonzero"/></clipPath><clipPath id="c559e80978"><path d="M 29 155 L 95 155 L 95 220 L 29 220 Z M 29 155 " clip-rule="nonzero"/></clipPath><clipPath id="e0afaafef6"><path d="M 541.269531 390.371094 L 153.796875 542.917969 L 0.148438 152.65625 L 387.625 0.105469 Z M 541.269531 390.371094 " clip-rule="nonzero"/></clipPath><clipPath id="3ef375972a"><path d="M 541.269531 390.371094 L 153.796875 542.917969 L 0.148438 152.65625 L 387.625 0.105469 Z M 541.269531 390.371094 " clip-rule="nonzero"/></clipPath><clipPath id="6c07c7e37a"><path d="M 109 298 L 329 298 L 329 514 L 109 514 Z M 109 298 " clip-rule="nonzero"/></clipPath><clipPath id="6136570bef"><path d="M 541.269531 390.371094 L 153.796875 542.917969 L 0.148438 152.65625 L 387.625 0.105469 Z M 541.269531 390.371094 " clip-rule="nonzero"/></clipPath><clipPath id="e86dd6ba9d"><path d="M 541.269531 390.371094 L 153.796875 542.917969 L 0.148438 152.65625 L 387.625 0.105469 Z M 541.269531 390.371094 " clip-rule="nonzero"/></clipPath><clipPath id="e84d44e07a"><path d="M 358.355469 462.1875 L 156.578125 541.625 L 78.558594 343.449219 L 280.332031 264.011719 Z M 358.355469 462.1875 " clip-rule="nonzero"/></clipPath><clipPath id="bca4b00f64"><path d="M 117 303 L 322 303 L 322 505 L 117 505 Z M 117 303 " clip-rule="nonzero"/></clipPath><clipPath id="baa9678ee9"><path d="M 541.269531 390.371094 L 153.796875 542.917969 L 0.148438 152.65625 L 387.625 0.105469 Z M 541.269531 390.371094 " clip-rule="nonzero"/></clipPath><clipPath id="e31d333c67"><path d="M 541.269531 390.371094 L 153.796875 542.917969 L 0.148438 152.65625 L 387.625 0.105469 Z M 541.269531 390.371094 " clip-rule="nonzero"/></clipPath><clipPath id="d832ea0b3b"><path d="M 158 349 L 276 349 L 276 466 L 158 466 Z M 158 349 " clip-rule="nonzero"/></clipPath><clipPath id="5f87397c45"><path d="M 541.269531 390.371094 L 153.796875 542.917969 L 0.148438 152.65625 L 387.625 0.105469 Z M 541.269531 390.371094 " clip-rule="nonzero"/></clipPath><clipPath id="71b1ad0ee2"><path d="M 541.269531 390.371094 L 153.796875 542.917969 L 0.148438 152.65625 L 387.625 0.105469 Z M 541.269531 390.371094 " clip-rule="nonzero"/></clipPath><clipPath id="ff97755213"><path d="M 166 356 L 268 356 L 268 457 L 166 457 Z M 166 356 " clip-rule="nonzero"/></clipPath><clipPath id="e4c4a51529"><path d="M 541.269531 390.371094 L 153.796875 542.917969 L 0.148438 152.65625 L 387.625 0.105469 Z M 541.269531 390.371094 " clip-rule="nonzero"/></clipPath><clipPath id="66d91a8017"><path d="M 541.269531 390.371094 L 153.796875 542.917969 L 0.148438 152.65625 L 387.625 0.105469 Z M 541.269531 390.371094 " clip-rule="nonzero"/></clipPath><clipPath id="0d172ab388"><path d="M 122 312 L 312 312 L 312 498 L 122 498 Z M 122 312 " clip-rule="nonzero"/></clipPath><clipPath id="c4e9e66fff"><path d="M 541.269531 390.371094 L 153.796875 542.917969 L 0.148438 152.65625 L 387.625 0.105469 Z M 541.269531 390.371094 " clip-rule="nonzero"/></clipPath><clipPath id="b9b7972bf0"><path d="M 541.269531 390.371094 L 153.796875 542.917969 L 0.148438 152.65625 L 387.625 0.105469 Z M 541.269531 390.371094 " clip-rule="nonzero"/></clipPath><clipPath id="d099b43aa6"><path d="M 179 370 L 253 370 L 253 445 L 179 445 Z M 179 370 " clip-rule="nonzero"/></clipPath><clipPath id="5212724917"><path d="M 541.269531 390.371094 L 153.796875 542.917969 L 0.148438 152.65625 L 387.625 0.105469 Z M 541.269531 390.371094 " clip-rule="nonzero"/></clipPath><clipPath id="fc75bba1a4"><path d="M 541.269531 390.371094 L 153.796875 542.917969 L 0.148438 152.65625 L 387.625 0.105469 Z M 541.269531 390.371094 " clip-rule="nonzero"/></clipPath><clipPath id="043233aa67"><path d="M 173 363 L 261 363 L 261 450 L 173 450 Z M 173 363 " clip-rule="nonzero"/></clipPath><clipPath id="82d13fbbe0"><path d="M 541.269531 390.371094 L 153.796875 542.917969 L 0.148438 152.65625 L 387.625 0.105469 Z M 541.269531 390.371094 " clip-rule="nonzero"/></clipPath><clipPath id="f9aec7efd0"><path d="M 541.269531 390.371094 L 153.796875 542.917969 L 0.148438 152.65625 L 387.625 0.105469 Z M 541.269531 390.371094 " clip-rule="nonzero"/></clipPath><clipPath id="c2352ab43a"><path d="M 186 377 L 244 377 L 244 434 L 186 434 Z M 186 377 " clip-rule="nonzero"/></clipPath><clipPath id="ee0df575da"><path d="M 541.269531 390.371094 L 153.796875 542.917969 L 0.148438 152.65625 L 387.625 0.105469 Z M 541.269531 390.371094 " clip-rule="nonzero"/></clipPath><clipPath id="a79e1a39ad"><path d="M 541.269531 390.371094 L 153.796875 542.917969 L 0.148438 152.65625 L 387.625 0.105469 Z M 541.269531 390.371094 " clip-rule="nonzero"/></clipPath><clipPath id="69315495aa"><path d="M 126 316 L 305 316 L 305 493 L 126 493 Z M 126 316 " clip-rule="nonzero"/></clipPath><clipPath id="303669ad87"><path d="M 541.269531 390.371094 L 153.796875 542.917969 L 0.148438 152.65625 L 387.625 0.105469 Z M 541.269531 390.371094 " clip-rule="nonzero"/></clipPath><clipPath id="08ded170e9"><path d="M 541.269531 390.371094 L 153.796875 542.917969 L 0.148438 152.65625 L 387.625 0.105469 Z M 541.269531 390.371094 " clip-rule="nonzero"/></clipPath><clipPath id="da36087f0a"><path d="M 136 326 L 297 326 L 297 483 L 136 483 Z M 136 326 " clip-rule="nonzero"/></clipPath><clipPath id="076748cd25"><path d="M 541.269531 390.371094 L 153.796875 542.917969 L 0.148438 152.65625 L 387.625 0.105469 Z M 541.269531 390.371094 " clip-rule="nonzero"/></clipPath><clipPath id="a2940018a3"><path d="M 541.269531 390.371094 L 153.796875 542.917969 L 0.148438 152.65625 L 387.625 0.105469 Z M 541.269531 390.371094 " clip-rule="nonzero"/></clipPath><clipPath id="ba26ff918b"><path d="M 139 329 L 291 329 L 291 479 L 139 479 Z M 139 329 " clip-rule="nonzero"/></clipPath><clipPath id="8aac03c3a6"><path d="M 541.269531 390.371094 L 153.796875 542.917969 L 0.148438 152.65625 L 387.625 0.105469 Z M 541.269531 390.371094 " clip-rule="nonzero"/></clipPath><clipPath id="fcdb14c616"><path d="M 541.269531 390.371094 L 153.796875 542.917969 L 0.148438 152.65625 L 387.625 0.105469 Z M 541.269531 390.371094 " clip-rule="nonzero"/></clipPath><clipPath id="ba3bcf603d"><path d="M 143 335 L 285 335 L 285 476 L 143 476 Z M 143 335 " clip-rule="nonzero"/></clipPath><clipPath id="7ce54e0a48"><path d="M 541.269531 390.371094 L 153.796875 542.917969 L 0.148438 152.65625 L 387.625 0.105469 Z M 541.269531 390.371094 " clip-rule="nonzero"/></clipPath><clipPath id="e85ada444d"><path d="M 541.269531 390.371094 L 153.796875 542.917969 L 0.148438 152.65625 L 387.625 0.105469 Z M 541.269531 390.371094 " clip-rule="nonzero"/></clipPath><clipPath id="bd0b765096"><path d="M 147 340 L 281 340 L 281 473 L 147 473 Z M 147 340 " clip-rule="nonzero"/></clipPath><clipPath id="faf8f6af98"><path d="M 541.269531 390.371094 L 153.796875 542.917969 L 0.148438 152.65625 L 387.625 0.105469 Z M 541.269531 390.371094 " clip-rule="nonzero"/></clipPath><clipPath id="b8ab7b42cc"><path d="M 541.269531 390.371094 L 153.796875 542.917969 L 0.148438 152.65625 L 387.625 0.105469 Z M 541.269531 390.371094 " clip-rule="nonzero"/></clipPath><clipPath id="9231e0f3d9"><path d="M 456 332 L 514 332 L 514 391 L 456 391 Z M 456 332 " clip-rule="nonzero"/></clipPath><clipPath id="ed5e6b7a13"><path d="M 541.269531 390.371094 L 153.796875 542.917969 L 0.148438 152.65625 L 387.625 0.105469 Z M 541.269531 390.371094 " clip-rule="nonzero"/></clipPath><clipPath id="15bcb19569"><path d="M 541.269531 390.371094 L 153.796875 542.917969 L 0.148438 152.65625 L 387.625 0.105469 Z M 541.269531 390.371094 " clip-rule="nonzero"/></clipPath><clipPath id="65a7508807"><path d="M 162 84 L 302 84 L 302 222 L 162 222 Z M 162 84 " clip-rule="nonzero"/></clipPath><clipPath id="90b2cba1ac"><path d="M 541.269531 390.371094 L 153.796875 542.917969 L 0.148438 152.65625 L 387.625 0.105469 Z M 541.269531 390.371094 " clip-rule="nonzero"/></clipPath><clipPath id="ac66adb44e"><path d="M 541.269531 390.371094 L 153.796875 542.917969 L 0.148438 152.65625 L 387.625 0.105469 Z M 541.269531 390.371094 " clip-rule="nonzero"/></clipPath><clipPath id="9af7b24ac4"><path d="M 322.503906 194.589844 L 194.132812 245.128906 L 143.289062 115.988281 L 271.660156 65.445312 Z M 322.503906 194.589844 " clip-rule="nonzero"/></clipPath></defs><g clip-path="url(#46f4d159d8)"><g clip-path="url(#e9da3f0e56)"><g clip-path="url(#084a9be309)"><path fill="#87c2d3" d="M 321.476562 496.828125 C 449.925781 546.65625 344.074219 798.25 197.496094 671.765625 C 106.332031 595.921875 202.347656 454.617188 307.433594 493.269531 L 321.476562 496.828125 " fill-opacity="1" fill-rule="nonzero"/></g></g></g><g clip-path="url(#4c27c9d4ad)"><g clip-path="url(#13589d95bc)"><g clip-path="url(#024319f391)"><path fill="#3a3d4d" d="M 170.960938 886.035156 C 131.742188 875.851562 154.101562 798.746094 201.226562 830.707031 C 230.441406 849.761719 207.203125 894.308594 175.1875 886.59375 L 170.960938 886.035156 " fill-opacity="1" fill-rule="nonzero"/></g></g></g><g clip-path="url(#c2fdfa4ede)"><g clip-path="url(#cdff0bc7e6)"><g clip-path="url(#b2f0dde45d)"><g clip-path="url(#431b34dcac)"><path fill="#3a3d4d" d="M 365.515625 610.679688 C 384.789062 600.523438 406.621094 597.449219 427.753906 603.070312 C 447.847656 608.414062 465.433594 621.003906 479.105469 636.410156 C 506.230469 666.984375 521.144531 713.6875 504.878906 752.886719 C 496.132812 773.976562 478.640625 789.4375 458.265625 799.023438 C 444.691406 805.410156 429.988281 809.148438 415.21875 811.433594 C 400.105469 813.777344 385.027344 813.746094 370.21875 809.601562 C 315.632812 794.332031 291.035156 730.011719 305.84375 678.589844 C 310.332031 663.007812 318.695312 648.613281 329.960938 636.960938 C 340.292969 626.28125 353.433594 619.128906 365.515625 610.679688 C 366.546875 609.957031 364.75 607.269531 363.742188 607.976562 C 353.777344 614.949219 342.976562 620.964844 333.789062 628.949219 C 323.460938 637.929688 315.183594 649.109375 309.324219 661.453125 C 298.046875 685.210938 296.492188 712.875 302.933594 738.191406 C 309.234375 762.96875 323.902344 785.910156 345.175781 800.386719 C 369.796875 817.144531 398.730469 818.246094 427.085938 812.40625 C 451.722656 807.328125 475.996094 796.800781 492.933594 777.675781 C 506.441406 762.425781 513.210938 742.667969 513.847656 722.46875 C 515.140625 681.507812 492.414062 639.828125 459.566406 616.050781 C 446.316406 606.464844 430.894531 599.804688 414.601562 597.859375 C 396.972656 595.75 379.359375 599.75 363.742188 607.976562 C 362.679688 608.535156 364.386719 611.273438 365.515625 610.679688 " fill-opacity="1" fill-rule="nonzero"/></g></g></g></g><g clip-path="url(#d6f17b628b)"><g clip-path="url(#f7345b7ba2)"><g clip-path="url(#f459e730d4)"><path fill="#3a3d4d" d="M 390.515625 609.75 C 412.132812 604.304688 434.410156 607.21875 453.410156 619.050781 C 471.613281 630.386719 484.871094 648.578125 493.113281 668.125 C 509.421875 706.8125 506.824219 757.832031 471.917969 785.613281 C 450.96875 802.289062 423.101562 806.371094 397.078125 805.027344 C 380.746094 804.1875 364.898438 801.042969 350.507812 793 C 338.035156 786.023438 327.8125 775.632812 320.441406 763.445312 C 305.820312 739.28125 303.550781 708.722656 311.132812 681.871094 C 319.140625 653.496094 339.316406 629.929688 366.589844 618.53125 C 374.46875 615.238281 382.769531 612.785156 390.746094 609.667969 C 391.804688 609.253906 390.179688 606.492188 388.972656 606.964844 C 377.308594 611.523438 365.097656 614.882812 354.132812 621.027344 C 341.738281 627.976562 331.199219 637.925781 323.101562 649.558594 C 307.378906 672.140625 301.710938 701.125 305.929688 728.136719 C 310.054688 754.539062 324.375 778.855469 347.035156 793.40625 C 359.886719 801.664062 374.902344 805.964844 390.027344 807.28125 C 404.984375 808.582031 420.003906 808.539062 434.777344 805.605469 C 456.945312 801.199219 477.179688 789.582031 490.023438 770.71875 C 501.671875 753.597656 505.910156 732.402344 505.050781 711.960938 C 503.335938 671.160156 480.550781 627.183594 441.796875 610.453125 C 425.152344 603.265625 406.683594 602.476562 389.203125 606.882812 C 387.851562 607.222656 389.390625 610.03125 390.515625 609.75 " fill-opacity="1" fill-rule="nonzero"/></g></g></g><g clip-path="url(#363e5be946)"><g clip-path="url(#281955cd94)"><g clip-path="url(#794be37e85)"><path fill="#3a3d4d" d="M 386.84375 658.808594 C 407.210938 648.207031 429.785156 654.117188 445.300781 670.230469 C 459.695312 685.179688 467.738281 707.972656 461.660156 728.339844 C 454.011719 753.960938 423.210938 765.652344 398.617188 764.453125 C 368.601562 762.984375 350.222656 733.832031 352.761719 705.679688 C 353.703125 695.242188 357.664062 685.273438 364.074219 677 C 370.207031 669.09375 378.78125 664.410156 386.84375 658.808594 C 387.871094 658.09375 386.074219 655.402344 385.0625 656.105469 C 380.261719 659.441406 375.113281 662.359375 370.535156 665.984375 C 365.191406 670.230469 360.769531 675.582031 357.390625 681.496094 C 350.917969 692.828125 349.011719 706.410156 350.875 719.222656 C 354.648438 745.199219 374.855469 766.527344 401.71875 767.390625 C 425.910156 768.171875 454.660156 756.292969 463.300781 732.140625 C 470.175781 712.917969 463.613281 690.988281 451.824219 675.144531 C 436.167969 654.09375 409.476562 643.40625 385.0625 656.105469 C 384 656.660156 385.707031 659.398438 386.84375 658.808594 " fill-opacity="1" fill-rule="nonzero"/></g></g></g><g clip-path="url(#2b59b0b6b4)"><g clip-path="url(#ff357753e4)"><g clip-path="url(#070219cf5b)"><path fill="#3a3d4d" d="M 400.835938 662.765625 C 424.199219 656.949219 444.046875 672.164062 451.542969 693.785156 C 458.691406 714.402344 453.953125 739.34375 433.609375 750.324219 C 421.121094 757.066406 404.515625 757.613281 390.960938 754.410156 C 376.125 750.90625 365.359375 739.472656 361.460938 724.945312 C 357.792969 711.257812 360.5625 696.128906 368.207031 684.304688 C 372.113281 678.265625 377.496094 673.359375 383.679688 669.738281 C 389.066406 666.578125 395.265625 664.949219 401.066406 662.683594 C 402.125 662.269531 400.503906 659.507812 399.292969 659.984375 C 393.453125 662.261719 387.386719 663.960938 381.898438 667.035156 C 375.753906 670.480469 370.582031 675.5 366.566406 681.257812 C 358.792969 692.394531 356.144531 706.792969 358.34375 720.078125 C 360.421875 732.667969 367.460938 744.648438 378.363281 751.539062 C 390.933594 759.492188 407.484375 760.472656 421.816406 757.734375 C 432.863281 755.621094 442.921875 749.875 449.425781 740.589844 C 455.289062 732.214844 457.378906 721.71875 457.019531 711.644531 C 456.289062 691.507812 444.847656 670.03125 425.871094 661.714844 C 417.539062 658.0625 408.285156 657.714844 399.523438 659.898438 C 398.175781 660.234375 399.714844 663.046875 400.835938 662.765625 " fill-opacity="1" fill-rule="nonzero"/></g></g></g><g clip-path="url(#4170be3821)"><g clip-path="url(#9d7ba09ed7)"><g clip-path="url(#a80f56f6da)"><path fill="#3a3d4d" d="M 418.074219 617.566406 C 442.96875 617.996094 465.097656 629.859375 479.066406 650.476562 C 492.460938 670.25 497.433594 695.292969 495.636719 718.867188 C 493.878906 741.964844 484.996094 765.238281 467.761719 781.195312 C 447.851562 799.617188 420.203125 803.183594 394.382812 798.253906 C 376.910156 794.917969 359.023438 788.660156 344.820312 777.753906 C 331.941406 767.863281 322.886719 753.917969 318.402344 738.375 C 309.734375 708.320312 318.699219 674.578125 338.328125 650.769531 C 348.632812 638.273438 362.363281 628.734375 377.675781 623.492188 C 390.71875 619.027344 404.515625 619.058594 418.074219 617.566406 C 419.398438 617.421875 417.941406 614.570312 416.761719 614.699219 C 403.15625 616.195312 389.484375 616.296875 376.363281 620.625 C 361.777344 625.429688 348.9375 634.308594 338.644531 645.625 C 318.386719 667.886719 309.0625 700.015625 314.320312 729.632812 C 316.859375 743.933594 323.085938 757.332031 332.40625 768.472656 C 343.132812 781.296875 357.558594 789.363281 373.089844 794.949219 C 399.359375 804.398438 429.636719 807.722656 455.105469 794.167969 C 497.183594 771.78125 506.289062 714.109375 491.910156 672.46875 C 486.519531 656.855469 477.433594 642.457031 464.71875 631.804688 C 451.246094 620.527344 434.203125 615 416.761719 614.699219 C 415.515625 614.679688 416.882812 617.546875 418.074219 617.566406 " fill-opacity="1" fill-rule="nonzero"/></g></g></g><g clip-path="url(#dfcfa90af9)"><g clip-path="url(#9b416e6bff)"><g clip-path="url(#8e7a60e9b1)"><path fill="#3a3d4d" d="M 394.058594 679.386719 C 415.578125 668.859375 438.480469 687.78125 441.851562 709.285156 C 443.554688 720.144531 439.191406 730.332031 430.011719 736.398438 C 417.96875 744.34375 399.46875 746.242188 387.25 737.953125 C 376.84375 730.890625 372.03125 717.609375 373.605469 705.410156 C 374.378906 699.410156 376.980469 693.835938 380.867188 689.230469 C 384.472656 684.964844 389.492188 682.441406 394.058594 679.386719 C 395.097656 678.691406 393.316406 675.992188 392.28125 676.683594 C 387.273438 680.03125 382.175781 682.835938 378.226562 687.515625 C 374.0625 692.445312 371.808594 698.777344 371.128906 705.132812 C 369.820312 717.46875 375.074219 730.101562 384.335938 738.222656 C 402.117188 753.816406 439.5 745.820312 444.101562 720.847656 C 449.058594 693.9375 418.671875 663.773438 392.28125 676.683594 C 391.21875 677.203125 392.910156 679.949219 394.058594 679.386719 " fill-opacity="1" fill-rule="nonzero"/></g></g></g><g clip-path="url(#d07f9ed8ee)"><g clip-path="url(#0fd23951de)"><g clip-path="url(#35d02da9ca)"><path fill="#3a3d4d" d="M 401.769531 669.125 C 425.726562 663.222656 444.117188 683.03125 447.511719 705.355469 C 449.113281 715.898438 447.269531 727.0625 440.886719 735.765625 C 433.214844 746.21875 420.074219 749.777344 407.679688 749.855469 C 396.136719 749.929688 384.777344 747.144531 376.613281 738.546875 C 369.578125 731.140625 366.695312 720.722656 366.832031 710.703125 C 366.96875 700.570312 370.835938 690.597656 377.445312 682.949219 C 384.039062 675.3125 392.960938 672.582031 402 669.042969 C 403.058594 668.628906 401.433594 665.867188 400.226562 666.34375 C 394.160156 668.714844 387.996094 670.464844 382.542969 674.15625 C 376.835938 678.015625 372.378906 683.546875 369.285156 689.65625 C 363.320312 701.433594 363.066406 715.6875 367.855469 727.882812 C 372.914062 740.761719 384.339844 749.5625 397.847656 751.910156 C 410.644531 754.136719 425.394531 752.726562 436.140625 744.933594 C 452.46875 733.097656 453.046875 709.925781 446.003906 692.769531 C 438.488281 674.472656 420.679688 661.273438 400.457031 666.257812 C 399.105469 666.59375 400.644531 669.40625 401.769531 669.125 " fill-opacity="1" fill-rule="nonzero"/></g></g></g><g clip-path="url(#2b78b57c6e)"><g clip-path="url(#2adfbc1610)"><g clip-path="url(#f22d2c556d)"><path fill="#3a3d4d" d="M 410.035156 684.960938 C 436.847656 685.71875 439.207031 729.472656 414.535156 736.058594 C 407.261719 738.003906 399.082031 736.035156 392.414062 732.96875 C 383.972656 729.09375 379.730469 720.582031 380.117188 711.542969 C 380.460938 703.683594 384.363281 696.164062 390.308594 691.105469 C 396.09375 686.179688 402.867188 685.75 410.035156 684.960938 C 411.351562 684.816406 409.894531 681.964844 408.71875 682.097656 C 401.570312 682.878906 395.269531 683.40625 389.265625 687.824219 C 383.371094 692.15625 379.699219 699.019531 378.269531 706.082031 C 376.898438 712.871094 378.234375 719.90625 381.707031 725.835938 C 385.6875 732.636719 392.777344 736.203125 400.085938 738.289062 C 412.4375 741.816406 425.128906 738.148438 430.960938 726.195312 C 435.839844 716.207031 434.742188 703.621094 429.230469 694.160156 C 424.894531 686.707031 417.269531 682.335938 408.71875 682.097656 C 407.476562 682.0625 408.839844 684.929688 410.035156 684.960938 " fill-opacity="1" fill-rule="nonzero"/></g></g></g><g clip-path="url(#71f28d88f4)"><g clip-path="url(#552aced5ae)"><g clip-path="url(#de2eefa216)"><path fill="#3a3d4d" d="M 437.503906 627.335938 C 463.921875 634.238281 482.300781 654.21875 488.65625 680.546875 C 494.695312 705.554688 490.046875 733.179688 477.761719 755.589844 C 465.546875 777.863281 444.355469 794.445312 418.542969 796.445312 C 403.019531 797.648438 387.589844 793.324219 373.671875 786.730469 C 356.578125 778.628906 340.214844 767.25 330.023438 751.023438 C 311.96875 722.261719 318.90625 684.953125 338.378906 658.863281 C 348.191406 645.710938 361.570312 635.3125 376.777344 629.167969 C 384.730469 625.953125 393.226562 624.199219 401.769531 623.648438 C 410.34375 623.097656 418.210938 624.84375 426.609375 625.929688 C 430.242188 626.398438 433.875 626.867188 437.503906 627.335938 C 439.09375 627.539062 437.84375 624.648438 436.730469 624.503906 C 422.882812 622.71875 409.425781 619.613281 395.382812 621.234375 C 379.320312 623.085938 364.191406 630.140625 351.734375 640.3125 C 327.710938 659.941406 313.628906 692.179688 318.007812 723.152344 C 322.875 757.570312 351.6875 781.316406 382.648438 793.128906 C 407.980469 802.789062 435.679688 801.617188 457.578125 784.621094 C 495.667969 755.058594 506.085938 690.277344 477.234375 651.199219 C 467.285156 637.722656 452.839844 628.714844 436.730469 624.503906 C 435.234375 624.113281 436.421875 627.054688 437.503906 627.335938 " fill-opacity="1" fill-rule="nonzero"/></g></g></g><g clip-path="url(#fd8f210648)"><g clip-path="url(#fe52428716)"><g clip-path="url(#7845ef769f)"><path fill="#3a3d4d" d="M 415.804688 632.804688 C 441.152344 633.273438 461.960938 647.867188 472.695312 670.566406 C 482.878906 692.097656 483.796875 718.125 476.230469 740.597656 C 468.488281 763.597656 450.257812 781.226562 426.042969 785.460938 C 410.773438 788.136719 395.042969 785.402344 380.464844 780.671875 C 363.335938 775.109375 348.195312 765.851562 338.605469 750.226562 C 323.027344 724.84375 327.746094 691.050781 343.789062 667.148438 C 351.960938 654.96875 363.550781 645.320312 377.035156 639.5625 C 389.429688 634.269531 402.644531 634.242188 415.804688 632.804688 C 417.125 632.660156 415.667969 629.808594 414.488281 629.9375 C 400.746094 631.4375 387.308594 631.714844 374.371094 637.242188 C 360.160156 643.308594 348.421875 654.203125 340.152344 667.132812 C 324.234375 692.015625 321.820312 725.507812 337.101562 751.214844 C 345.347656 765.074219 358.679688 775.011719 373.566406 780.773438 C 388.152344 786.425781 403.753906 790.058594 419.46875 789.222656 C 443.621094 787.933594 463.84375 773.753906 474.484375 752.261719 C 493.964844 712.917969 482.234375 652.203125 438.425781 634.53125 C 430.8125 631.460938 422.671875 630.089844 414.488281 629.9375 C 413.242188 629.914062 414.609375 632.785156 415.804688 632.804688 " fill-opacity="1" fill-rule="nonzero"/></g></g></g><g clip-path="url(#3c55e3ce6f)"><g clip-path="url(#214bc7ee09)"><g clip-path="url(#9c8bef1152)"><path fill="#3a3d4d" d="M 432.132812 641.039062 C 488.515625 655.859375 488.324219 734.027344 450.535156 768.214844 C 441.171875 776.6875 429.394531 781.898438 416.828125 783.074219 C 400.871094 784.566406 385.140625 779.085938 371.390625 771.40625 C 354.753906 762.117188 340.714844 749.25 335.160156 730.535156 C 330.472656 714.742188 332.921875 697.558594 339.601562 682.726562 C 347.503906 665.195312 361.914062 650.753906 379.59375 643.140625 C 388.757812 639.195312 398.78125 637.550781 408.726562 637.863281 C 416.539062 638.113281 424.375 640.035156 432.132812 641.039062 C 433.722656 641.246094 432.472656 638.355469 431.355469 638.210938 C 417.074219 636.363281 403.625 633.472656 389.238281 636.710938 C 373.816406 640.1875 360.203125 649.261719 349.886719 661.070312 C 329.457031 684.476562 323.628906 719.617188 340.429688 746.578125 C 349.71875 761.484375 365.488281 771.808594 381.226562 778.878906 C 394.195312 784.703125 408.601562 787.636719 422.75 785.355469 C 447.730469 781.328125 465.644531 760.667969 473.878906 737.824219 C 480.738281 718.804688 481.695312 696.875 474.671875 677.753906 C 467.410156 657.988281 451.753906 643.574219 431.355469 638.210938 C 429.859375 637.816406 431.050781 640.757812 432.132812 641.039062 " fill-opacity="1" fill-rule="nonzero"/></g></g></g><g clip-path="url(#9d3fcc45a6)"><g clip-path="url(#392b2acdb1)"><g clip-path="url(#5da9eb538c)"><path fill="#3a3d4d" d="M 446.824219 655.691406 C 496.28125 684.054688 471.632812 761.785156 423.722656 777.222656 C 393.320312 787.023438 362.300781 765.441406 346.914062 740.230469 C 329.832031 712.253906 342.207031 677.730469 366.726562 658.867188 C 378.234375 650.007812 392.359375 644.816406 406.886719 644.402344 C 421.542969 643.992188 433.695312 650.261719 446.824219 655.691406 C 448.578125 656.414062 447.695312 653.523438 446.632812 653.082031 C 433.9375 647.832031 422.363281 641.953125 408.296875 641.539062 C 393.578125 641.105469 379.074219 646.246094 367.089844 654.59375 C 343.523438 671.027344 330.273438 701.324219 339.78125 729.25 C 345.078125 744.804688 357.117188 757.894531 369.875 767.839844 C 380.625 776.214844 393.4375 781.921875 407.15625 782.53125 C 432.085938 783.640625 453.414062 766.128906 465.234375 745.503906 C 473.910156 730.355469 478.21875 712.195312 475.625 694.820312 C 472.96875 676.964844 462.203125 662.011719 446.632812 653.082031 C 445.019531 652.160156 445.855469 655.132812 446.824219 655.691406 " fill-opacity="1" fill-rule="nonzero"/></g></g></g><g clip-path="url(#4a2f6c006e)"><g clip-path="url(#fcb66c271f)"><g clip-path="url(#c62ce93907)"><path fill="#3a3d4d" d="M 455.757812 668.746094 C 492.613281 703.640625 458.507812 763.699219 415.78125 773.746094 C 404.902344 776.304688 393.5 775.242188 383.332031 770.585938 C 370.273438 764.605469 360.644531 753.214844 353.476562 741.078125 C 345.371094 727.355469 341.085938 712.285156 344.667969 696.445312 C 347.695312 683.046875 356.203125 671.398438 366.859375 662.980469 C 379.601562 652.910156 395.914062 647.570312 412.132812 648.300781 C 420.945312 648.695312 429.566406 651.269531 437.304688 655.445312 C 443.957031 659.039062 449.664062 664.304688 455.757812 668.746094 C 457.472656 669.996094 457.210938 667.296875 456.15625 666.527344 C 445.617188 658.851562 436.242188 650.832031 423.34375 647.347656 C 410.421875 643.851562 396.632812 645.132812 384.144531 649.660156 C 359.246094 658.699219 339.984375 682.367188 341.019531 709.492188 C 341.601562 724.640625 349.050781 738.929688 357.792969 750.964844 C 365.1875 761.136719 374.871094 769.878906 386.675781 774.539062 C 407.304688 782.679688 429.789062 775.339844 446.132812 761.609375 C 459.921875 750.015625 470.148438 733.503906 473.117188 715.636719 C 476.179688 697.183594 469.65625 679.308594 456.15625 666.527344 C 454.628906 665.082031 454.851562 667.886719 455.757812 668.746094 " fill-opacity="1" fill-rule="nonzero"/></g></g></g><g clip-path="url(#563d77f7e3)"><g clip-path="url(#1637b5af28)"><g clip-path="url(#4b5b8c78bf)"><path fill="#f2ad5e" d="M 398.914062 452.574219 C 386.714844 486.515625 320.175781 460.449219 352.324219 421.265625 C 371.582031 396.914062 409.1875 421.121094 399.753906 448.875 L 398.914062 452.574219 " fill-opacity="1" fill-rule="nonzero"/></g></g></g><g clip-path="url(#df733768b8)"><g clip-path="url(#8f088560c4)"><g clip-path="url(#c35fe5e578)"><g clip-path="url(#1f5db871de)"><path fill="#f2ad5e" d="M 198.703125 632.0625 C 243.144531 663.054688 215.882812 732.785156 170.832031 747.699219 C 159.320312 751.511719 146.875 751.117188 135.578125 746.757812 C 120.417969 740.90625 108.820312 728.730469 99.523438 715.800781 C 90.207031 702.84375 86.363281 686.957031 89.445312 671.261719 C 92.222656 657.132812 100.582031 644.503906 111.296875 635.101562 C 123.476562 624.417969 139.25 618.015625 155.460938 617.578125 C 164.203125 617.347656 172.933594 619.1875 180.960938 622.609375 C 187.195312 625.273438 192.984375 629.125 199 632.261719 C 200.664062 633.125 199.808594 630.171875 198.804688 629.648438 C 186.832031 623.40625 175.988281 616.617188 162.234375 615.0625 C 148.316406 613.492188 134.242188 616.929688 122.042969 623.625 C 97.820312 636.917969 81.886719 664.199219 87.089844 691.980469 C 90.035156 707.679688 100.105469 721.449219 111.148438 732.566406 C 120.53125 742.015625 132.125 749.472656 145.28125 752.207031 C 168.46875 757.019531 190.738281 744.550781 205.136719 727.046875 C 216.773438 712.894531 223.984375 694.605469 223.863281 676.199219 C 223.738281 657.460938 214.398438 640.511719 199.101562 629.847656 C 197.363281 628.632812 197.628906 631.3125 198.703125 632.0625 " fill-opacity="1" fill-rule="nonzero"/></g></g></g></g><g clip-path="url(#712eaf7ce9)"><g clip-path="url(#80cd176cd9)"><g clip-path="url(#74dcee9138)"><path fill="#ed4c87" d="M 425.554688 312.535156 C 380.722656 442.8125 125.226562 346.753906 245.957031 195.402344 C 318.226562 101.378906 463.132812 191.863281 428.5625 298.367188 L 425.554688 312.535156 " fill-opacity="1" fill-rule="nonzero"/></g></g></g><g clip-path="url(#c559e80978)"><g clip-path="url(#e0afaafef6)"><g clip-path="url(#3ef375972a)"><path fill="#3a3d4d" d="M 30.824219 177.160156 C 39.484375 137.578125 117.398438 156.945312 87.277344 205.269531 C 69.367188 235.195312 23.957031 213.695312 30.429688 181.40625 L 30.824219 177.160156 " fill-opacity="1" fill-rule="nonzero"/></g></g></g><g clip-path="url(#6c07c7e37a)"><g clip-path="url(#6136570bef)"><g clip-path="url(#e86dd6ba9d)"><g clip-path="url(#e84d44e07a)"><path fill="#3a3d4d" d="M 313.488281 360.9375 C 324.378906 379.804688 328.292969 401.5 323.492188 422.835938 C 318.929688 443.121094 307.027344 461.179688 292.160156 475.4375 C 262.65625 503.722656 216.5625 520.429688 176.765625 505.6875 C 155.351562 497.761719 139.226562 480.882812 128.863281 460.890625 C 121.960938 447.574219 117.65625 433.027344 114.800781 418.355469 C 111.875 403.34375 111.324219 388.277344 114.894531 373.320312 C 128.046875 318.183594 191.367188 291.121094 243.320312 303.933594 C 259.0625 307.816406 273.773438 315.617188 285.851562 326.425781 C 296.921875 336.335938 304.578125 349.191406 313.488281 360.9375 C 314.246094 361.9375 316.863281 360.039062 316.117188 359.058594 C 308.765625 349.371094 302.339844 338.8125 294.003906 329.9375 C 284.632812 319.964844 273.140625 312.128906 260.582031 306.75 C 236.402344 296.394531 208.703125 295.914062 183.652344 303.324219 C 159.136719 310.582031 136.777344 326.121094 123.132812 347.9375 C 107.339844 373.1875 107.355469 402.144531 114.289062 430.25 C 120.3125 454.675781 131.769531 478.523438 151.535156 494.710938 C 167.296875 507.617188 187.300781 513.617188 207.507812 513.476562 C 248.488281 513.1875 289.257812 488.863281 311.75 455.125 C 320.816406 441.515625 326.875 425.847656 328.191406 409.488281 C 329.617188 391.796875 324.941406 374.347656 316.117188 359.058594 C 315.519531 358.019531 312.847656 359.832031 313.488281 360.9375 " fill-opacity="1" fill-rule="nonzero"/></g></g></g></g><g clip-path="url(#bca4b00f64)"><g clip-path="url(#baa9678ee9)"><g clip-path="url(#e31d333c67)"><path fill="#3a3d4d" d="M 315.378906 385.882812 C 321.65625 407.273438 319.601562 429.644531 308.515625 449.089844 C 297.890625 467.71875 280.226562 481.667969 261.011719 490.65625 C 222.980469 508.449219 171.898438 507.820312 142.789062 474.015625 C 125.316406 453.722656 120.164062 426.039062 120.5 399.980469 C 120.710938 383.628906 123.238281 367.671875 130.722656 352.980469 C 137.210938 340.246094 147.199219 329.632812 159.09375 321.796875 C 182.675781 306.253906 213.125 302.804688 240.246094 309.34375 C 268.910156 316.25 293.238281 335.503906 305.679688 362.3125 C 309.277344 370.058594 312.046875 378.261719 315.46875 386.113281 C 315.925781 387.152344 318.621094 385.421875 318.105469 384.230469 C 313.097656 372.753906 309.269531 360.679688 302.703125 349.960938 C 295.285156 337.847656 284.933594 327.699219 272.996094 320.054688 C 249.828125 305.21875 220.640625 300.671875 193.816406 305.929688 C 167.589844 311.074219 143.847656 326.324219 130.179688 349.527344 C 122.425781 362.6875 118.710938 377.859375 117.976562 393.023438 C 117.253906 408.019531 117.875 423.027344 121.378906 437.675781 C 126.640625 459.65625 139.027344 479.429688 158.375 491.53125 C 175.929688 502.511719 197.273438 505.925781 217.667969 504.277344 C 258.371094 500.992188 301.4375 476.523438 316.65625 437.152344 C 323.195312 420.242188 323.269531 401.757812 318.195312 384.460938 C 317.800781 383.125 315.054688 384.769531 315.378906 385.882812 " fill-opacity="1" fill-rule="nonzero"/></g></g></g><g clip-path="url(#d832ea0b3b)"><g clip-path="url(#5f87397c45)"><g clip-path="url(#71b1ad0ee2)"><path fill="#3a3d4d" d="M 266.214844 384.105469 C 277.59375 404.050781 272.5625 426.839844 257.0625 442.964844 C 242.679688 457.921875 220.210938 466.839844 199.625 461.554688 C 173.730469 454.898438 160.855469 424.574219 161.105469 399.953125 C 161.410156 369.902344 189.835938 350.410156 218.0625 351.859375 C 228.53125 352.398438 238.644531 355.972656 247.160156 362.058594 C 255.296875 367.878906 260.308594 376.269531 266.214844 384.105469 C 266.96875 385.105469 269.589844 383.210938 268.847656 382.222656 C 265.328125 377.554688 262.214844 372.523438 258.414062 368.089844 C 253.96875 362.914062 248.449219 358.699219 242.410156 355.554688 C 230.835938 349.523438 217.1875 348.144531 204.457031 350.5 C 178.644531 355.269531 158.113281 376.289062 158.289062 403.167969 C 158.441406 427.371094 171.425781 455.636719 195.890625 463.339844 C 215.363281 469.46875 237.027344 462.0625 252.402344 449.671875 C 272.832031 433.210938 282.484375 406.128906 268.847656 382.222656 C 268.253906 381.183594 265.582031 382.996094 266.214844 384.105469 " fill-opacity="1" fill-rule="nonzero"/></g></g></g><g clip-path="url(#ff97755213)"><g clip-path="url(#e4c4a51529)"><g clip-path="url(#66d91a8017)"><path fill="#3a3d4d" d="M 262.800781 398.242188 C 269.515625 421.367188 255.082031 441.785156 233.765625 450.109375 C 213.4375 458.050781 188.332031 454.277344 176.574219 434.375 C 169.355469 422.152344 168.167969 405.582031 170.847656 391.914062 C 173.773438 376.953125 184.78125 365.757812 199.148438 361.300781 C 212.683594 357.101562 227.90625 359.285156 240.019531 366.46875 C 246.203125 370.140625 251.3125 375.332031 255.171875 381.367188 C 258.539062 386.628906 260.40625 392.761719 262.894531 398.472656 C 263.347656 399.511719 266.042969 397.785156 265.523438 396.59375 C 263.023438 390.847656 261.089844 384.851562 257.804688 379.484375 C 254.125 373.476562 248.90625 368.503906 243 364.714844 C 231.570312 357.378906 217.082031 355.285156 203.890625 357.996094 C 191.390625 360.558594 179.691406 368.054688 173.226562 379.214844 C 165.765625 392.085938 165.421875 408.65625 168.714844 422.875 C 171.253906 433.832031 177.382812 443.660156 186.914062 449.800781 C 195.507812 455.335938 206.074219 457.019531 216.128906 456.269531 C 236.222656 454.765625 257.242188 442.503906 264.816406 423.21875 C 268.148438 414.75 268.136719 405.488281 265.617188 396.820312 C 265.226562 395.484375 262.476562 397.132812 262.800781 398.242188 " fill-opacity="1" fill-rule="nonzero"/></g></g></g><g clip-path="url(#0d172ab388)"><g clip-path="url(#c4e9e66fff)"><g clip-path="url(#b9b7972bf0)"><path fill="#3a3d4d" d="M 308.632812 413.722656 C 309.164062 438.613281 298.164062 461.183594 278.101562 475.941406 C 258.859375 490.089844 234.03125 496.023438 210.402344 495.140625 C 187.253906 494.273438 163.65625 486.296875 147.046875 469.691406 C 127.867188 450.507812 123.238281 423.019531 127.164062 397.027344 C 129.824219 379.4375 135.386719 361.324219 145.738281 346.707031 C 155.121094 333.457031 168.710938 323.871094 184.066406 318.792969 C 213.761719 308.96875 247.828125 316.621094 272.375 335.320312 C 285.257812 345.132812 295.320312 358.484375 301.152344 373.585938 C 306.117188 386.441406 306.617188 400.230469 308.632812 413.722656 C 308.828125 415.039062 311.621094 413.472656 311.445312 412.300781 C 309.425781 398.765625 308.796875 385.105469 303.964844 372.160156 C 298.601562 357.769531 289.234375 345.285156 277.527344 335.4375 C 254.503906 316.054688 222.039062 307.976562 192.644531 314.371094 C 178.449219 317.464844 165.304688 324.203125 154.53125 333.945312 C 142.128906 345.160156 134.628906 359.886719 129.644531 375.625 C 121.214844 402.234375 119.0625 432.617188 133.589844 457.546875 C 157.585938 498.726562 215.566406 505.597656 256.621094 489.625 C 272.015625 483.636719 286.054688 474 296.207031 460.882812 C 306.953125 446.984375 311.820312 429.742188 311.445312 412.300781 C 311.417969 411.054688 308.605469 412.53125 308.632812 413.722656 " fill-opacity="1" fill-rule="nonzero"/></g></g></g><g clip-path="url(#d099b43aa6)"><g clip-path="url(#5212724917)"><g clip-path="url(#fc75bba1a4)"><path fill="#3a3d4d" d="M 245.933594 392.113281 C 257.28125 413.210938 239.261719 436.824219 217.902344 441.023438 C 207.113281 443.144531 196.765625 439.179688 190.351562 430.238281 C 181.945312 418.515625 179.335938 400.097656 187.148438 387.570312 C 193.800781 376.898438 206.886719 371.578125 219.140625 372.679688 C 225.164062 373.21875 230.835938 375.605469 235.585938 379.3125 C 239.988281 382.746094 242.703125 387.667969 245.933594 392.113281 C 246.667969 393.125 249.292969 391.238281 248.566406 390.234375 C 245.027344 385.355469 242.023438 380.371094 237.199219 376.605469 C 232.109375 372.636719 225.695312 370.625 219.320312 370.195312 C 206.941406 369.363281 194.523438 375.101562 186.761719 384.667969 C 171.867188 403.039062 181.300781 440.085938 206.433594 443.71875 C 233.515625 447.632812 262.484375 416.105469 248.566406 390.234375 C 248.003906 389.191406 245.324219 390.984375 245.933594 392.113281 " fill-opacity="1" fill-rule="nonzero"/></g></g></g><g clip-path="url(#043233aa67)"><g clip-path="url(#82d13fbbe0)"><g clip-path="url(#f9aec7efd0)"><path fill="#3a3d4d" d="M 256.484375 399.421875 C 263.304688 423.128906 244.226562 442.273438 222.042969 446.527344 C 211.574219 448.535156 200.347656 447.125 191.40625 441.082031 C 180.664062 433.820312 176.597656 420.828125 176.039062 408.445312 C 175.523438 396.914062 177.867188 385.457031 186.144531 376.964844 C 193.273438 369.648438 203.570312 366.367188 213.585938 366.117188 C 223.71875 365.863281 233.832031 369.339844 241.730469 375.648438 C 249.617188 381.941406 252.691406 390.753906 256.574219 399.648438 C 257.03125 400.691406 259.726562 398.960938 259.203125 397.769531 C 256.601562 391.800781 254.613281 385.710938 250.714844 380.402344 C 246.636719 374.847656 240.9375 370.609375 234.710938 367.753906 C 222.714844 362.246094 208.460938 362.546875 196.457031 367.800781 C 183.789062 373.351562 175.433594 385.113281 173.609375 398.699219 C 171.878906 411.570312 173.855469 426.257812 182.058594 436.695312 C 194.515625 452.550781 217.695312 452.238281 234.5625 444.535156 C 252.558594 436.320312 265.058594 418.011719 259.296875 397.996094 C 258.910156 396.660156 256.160156 398.308594 256.484375 399.421875 " fill-opacity="1" fill-rule="nonzero"/></g></g></g><g clip-path="url(#c2352ab43a)"><g clip-path="url(#ee0df575da)"><g clip-path="url(#a79e1a39ad)"><path fill="#3a3d4d" d="M 240.976562 408.289062 C 241.257812 435.117188 197.628906 439.160156 190.09375 414.761719 C 187.871094 407.570312 189.519531 399.320312 192.324219 392.539062 C 195.875 383.953125 204.214844 379.382812 213.261719 379.421875 C 221.128906 379.460938 228.792969 383.070312 234.078125 388.816406 C 239.222656 394.40625 239.914062 401.15625 240.976562 408.289062 C 241.171875 409.605469 243.964844 408.039062 243.789062 406.863281 C 242.730469 399.753906 241.960938 393.476562 237.316406 387.648438 C 232.757812 381.925781 225.757812 378.523438 218.644531 377.367188 C 211.808594 376.257812 204.832031 377.863281 199.039062 381.5625 C 192.398438 385.800781 189.109375 393.027344 187.304688 400.410156 C 184.257812 412.886719 188.414062 425.425781 200.582031 430.796875 C 210.75 435.285156 223.285156 433.703125 232.53125 427.828125 C 239.808594 423.210938 243.882812 415.421875 243.789062 406.863281 C 243.777344 405.625 240.964844 407.097656 240.976562 408.289062 " fill-opacity="1" fill-rule="nonzero"/></g></g></g><g clip-path="url(#69315495aa)"><g clip-path="url(#303669ad87)"><g clip-path="url(#08ded170e9)"><path fill="#3a3d4d" d="M 299.621094 433.515625 C 293.742188 460.183594 274.488281 479.316406 248.425781 486.6875 C 223.667969 493.683594 195.886719 490.105469 173.015625 478.695312 C 150.289062 467.351562 132.898438 446.816406 129.90625 421.097656 C 128.105469 405.632812 131.828125 390.046875 137.878906 375.886719 C 145.316406 358.492188 156.054688 341.699219 171.875 330.894531 C 199.917969 311.742188 237.46875 317.230469 264.289062 335.683594 C 277.8125 344.980469 288.71875 357.945312 295.449219 372.90625 C 298.964844 380.730469 301.046875 389.152344 301.925781 397.667969 C 302.808594 406.214844 301.367188 414.140625 300.605469 422.574219 C 300.277344 426.222656 299.949219 429.871094 299.621094 433.515625 C 299.476562 435.113281 302.320312 433.75 302.421875 432.632812 C 303.671875 418.726562 306.253906 405.160156 304.089844 391.191406 C 301.621094 375.210938 293.988281 360.363281 283.34375 348.3125 C 262.800781 325.0625 230.042969 312.238281 199.261719 317.808594 C 165.058594 324.003906 142.441406 353.710938 131.835938 385.101562 C 123.15625 410.789062 125.398438 438.421875 143.230469 459.648438 C 174.238281 496.566406 239.375 504.476562 277.308594 474.136719 C 290.390625 463.671875 298.835938 448.890625 302.421875 432.632812 C 302.753906 431.121094 299.859375 432.421875 299.621094 433.515625 " fill-opacity="1" fill-rule="nonzero"/></g></g></g><g clip-path="url(#da36087f0a)"><g clip-path="url(#076748cd25)"><g clip-path="url(#a2940018a3)"><path fill="#3a3d4d" d="M 293.316406 412.042969 C 293.828125 437.390625 280.050781 458.746094 257.785156 470.351562 C 236.660156 481.355469 210.6875 483.277344 187.941406 476.589844 C 164.65625 469.738281 146.339844 452.203125 141.171875 428.167969 C 137.910156 413.015625 140.035156 397.191406 144.195312 382.441406 C 149.09375 365.105469 157.761719 349.621094 173.003906 339.4375 C 197.765625 322.890625 231.71875 326.300781 256.21875 341.40625 C 268.703125 349.101562 278.792969 360.3125 285.066406 373.5625 C 290.839844 385.746094 291.371094 398.949219 293.316406 412.042969 C 293.511719 413.355469 296.308594 411.792969 296.132812 410.617188 C 294.101562 396.941406 293.308594 383.527344 287.285156 370.8125 C 280.671875 356.847656 269.335938 345.535156 256.09375 337.769531 C 230.613281 322.828125 197.054688 321.707031 171.957031 337.972656 C 158.429688 346.746094 149.011719 360.453125 143.828125 375.550781 C 138.746094 390.34375 135.71875 406.070312 137.160156 421.742188 C 139.382812 445.828125 154.328125 465.492188 176.214844 475.292969 C 216.28125 493.238281 276.5 479.171875 292.464844 434.714844 C 295.242188 426.988281 296.296875 418.800781 296.132812 410.617188 C 296.105469 409.375 293.292969 410.851562 293.316406 412.042969 " fill-opacity="1" fill-rule="nonzero"/></g></g></g><g clip-path="url(#ba26ff918b)"><g clip-path="url(#8aac03c3a6)"><g clip-path="url(#fcdb14c616)"><path fill="#3a3d4d" d="M 285.71875 428.675781 C 273.085938 485.589844 194.972656 488.417969 159.351562 451.976562 C 150.523438 442.945312 144.859375 431.378906 143.199219 418.867188 C 141.09375 402.980469 145.960938 387.046875 153.105469 373.015625 C 161.746094 356.03125 174.058594 341.507812 192.546875 335.230469 C 208.148438 329.941406 225.414062 331.722656 240.488281 337.828125 C 258.316406 345.046875 273.304688 358.886719 281.59375 376.257812 C 285.886719 385.261719 287.921875 395.21875 287.988281 405.167969 C 288.039062 412.984375 286.425781 420.882812 285.71875 428.675781 C 285.574219 430.273438 288.414062 428.910156 288.515625 427.792969 C 289.8125 413.449219 292.183594 399.898438 288.386719 385.648438 C 284.320312 370.371094 274.726562 357.117188 262.527344 347.269531 C 238.351562 327.753906 203.011719 323.289062 176.71875 341.121094 C 162.183594 350.976562 152.476562 367.128906 146.015625 383.132812 C 140.699219 396.3125 138.324219 410.824219 141.152344 424.875 C 146.140625 449.683594 167.476562 466.785156 190.621094 474.132812 C 209.890625 480.25 231.839844 480.355469 250.675781 472.601562 C 270.148438 464.585938 283.945312 448.382812 288.515625 427.792969 C 288.851562 426.28125 285.960938 427.585938 285.71875 428.675781 " fill-opacity="1" fill-rule="nonzero"/></g></g></g><g clip-path="url(#ba3bcf603d)"><g clip-path="url(#7ce54e0a48)"><g clip-path="url(#e85ada444d)"><path fill="#3a3d4d" d="M 271.648438 443.925781 C 245.214844 494.441406 166.589844 472.808594 149.3125 425.535156 C 138.347656 395.53125 158.714844 363.703125 183.3125 347.351562 C 210.609375 329.203125 245.582031 340.238281 265.382812 364.007812 C 274.675781 375.164062 280.410156 389.082031 281.382812 403.578125 C 282.359375 418.210938 276.566406 430.59375 271.648438 443.925781 C 270.992188 445.703125 273.847656 444.710938 274.246094 443.632812 C 279.003906 430.742188 284.429688 418.953125 284.300781 404.878906 C 284.164062 390.15625 278.46875 375.859375 269.664062 364.207031 C 252.332031 341.289062 221.546875 329.222656 194.011719 339.800781 C 178.671875 345.695312 166.054688 358.230469 156.613281 371.363281 C 148.65625 382.429688 143.449219 395.453125 143.367188 409.183594 C 143.222656 434.136719 161.546875 454.773438 182.613281 465.789062 C 198.085938 473.871094 216.398438 477.476562 233.660156 474.214844 C 251.398438 470.867188 265.925781 459.535156 274.246094 443.632812 C 275.109375 441.984375 272.167969 442.9375 271.648438 443.925781 " fill-opacity="1" fill-rule="nonzero"/></g></g></g><g clip-path="url(#bd0b765096)"><g clip-path="url(#faf8f6af98)"><g clip-path="url(#b8ab7b42cc)"><path fill="#3a3d4d" d="M 258.949219 453.355469 C 225.5 491.53125 164.171875 459.769531 152.480469 417.460938 C 149.503906 406.691406 150.128906 395.253906 154.386719 384.917969 C 159.859375 371.632812 170.867188 361.574219 182.71875 353.941406 C 196.117188 345.3125 211.011719 340.453125 226.976562 343.417969 C 240.484375 345.925781 252.453125 353.976562 261.277344 364.300781 C 271.828125 376.644531 277.796875 392.738281 277.691406 408.972656 C 277.636719 417.792969 275.402344 426.507812 271.527344 434.402344 C 268.191406 441.1875 263.148438 447.09375 258.949219 453.355469 C 257.761719 455.117188 260.449219 454.753906 261.179688 453.667969 C 268.445312 442.839844 276.09375 433.160156 279.078125 420.136719 C 282.070312 407.089844 280.261719 393.359375 275.25 381.058594 C 265.261719 356.527344 240.867188 338.191406 213.800781 340.277344 C 198.683594 341.441406 184.695312 349.4375 173.007812 358.640625 C 163.125 366.421875 154.765625 376.433594 150.566406 388.40625 C 143.226562 409.339844 151.429688 431.519531 165.78125 447.320312 C 177.898438 460.652344 194.792969 470.234375 212.757812 472.511719 C 231.320312 474.859375 248.929688 467.648438 261.179688 453.667969 C 262.566406 452.082031 259.773438 452.417969 258.949219 453.355469 " fill-opacity="1" fill-rule="nonzero"/></g></g></g><g clip-path="url(#9231e0f3d9)"><g clip-path="url(#ed5e6b7a13)"><g clip-path="url(#15bcb19569)"><path fill="#6ca7b7" d="M 472.761719 388.207031 C 438.375 377.324219 461.851562 309.828125 502.246094 340.445312 C 527.328125 358.742188 504.589844 397.257812 476.492188 388.902344 L 472.761719 388.207031 " fill-opacity="1" fill-rule="nonzero"/></g></g></g><g clip-path="url(#65a7508807)"><g clip-path="url(#90b2cba1ac)"><g clip-path="url(#ac66adb44e)"><g clip-path="url(#9af7b24ac4)"><path fill="#6ca7b7" d="M 285.675781 195.074219 C 256.421875 240.679688 185.691406 216.128906 169.050781 171.6875 C 164.796875 160.335938 164.710938 147.882812 168.628906 136.425781 C 173.890625 121.054688 185.613281 108.992188 198.171875 99.203125 C 210.757812 89.394531 226.488281 84.9375 242.289062 87.414062 C 256.515625 89.640625 269.457031 97.503906 279.265625 107.851562 C 290.414062 119.609375 297.417969 135.125 298.480469 151.304688 C 299.050781 160.035156 297.546875 168.828125 294.4375 176.980469 C 292.019531 183.3125 288.390625 189.246094 285.488281 195.378906 C 284.691406 197.074219 287.609375 196.105469 288.09375 195.082031 C 293.867188 182.878906 300.234375 171.78125 301.253906 157.976562 C 302.289062 144.007812 298.308594 130.078125 291.148438 118.144531 C 276.929688 94.457031 249.050781 79.585938 221.496094 85.859375 C 205.917969 89.40625 192.550781 100 181.867188 111.464844 C 172.789062 121.207031 165.78125 133.082031 163.558594 146.332031 C 159.644531 169.691406 172.964844 191.460938 191.011719 205.171875 C 205.605469 216.253906 224.15625 222.753906 242.546875 221.921875 C 261.261719 221.070312 277.839844 211.082031 287.90625 195.390625 C 289.050781 193.605469 286.382812 193.972656 285.675781 195.074219 " fill-opacity="1" fill-rule="nonzero"/></g></g></g></g></svg>