<svg xmlns="http://www.w3.org/2000/svg" xmlns:xlink="http://www.w3.org/1999/xlink" width="781" zoomAndPan="magnify" viewBox="0 0 585.75 878.999996" height="1172" preserveAspectRatio="xMidYMid meet" version="1.0"><defs><clipPath id="e1f39c0267"><path d="M 162 459 L 380 459 L 380 680 L 162 680 Z M 162 459 " clip-rule="nonzero"/></clipPath><clipPath id="ec88e102b8"><path d="M 198.441406 333.269531 L 584.898438 489.445312 L 427.597656 878.683594 L 41.140625 722.507812 Z M 198.441406 333.269531 " clip-rule="nonzero"/></clipPath><clipPath id="158c59a3d6"><path d="M 198.441406 333.269531 L 584.898438 489.445312 L 427.597656 878.683594 L 41.140625 722.507812 Z M 198.441406 333.269531 " clip-rule="nonzero"/></clipPath><clipPath id="45453bea6e"><path d="M 374 779 L 439 779 L 439 845 L 374 845 Z M 374 779 " clip-rule="nonzero"/></clipPath><clipPath id="c772a9a4a9"><path d="M 198.441406 333.269531 L 584.898438 489.445312 L 427.597656 878.683594 L 41.140625 722.507812 Z M 198.441406 333.269531 " clip-rule="nonzero"/></clipPath><clipPath id="e6dce66b3a"><path d="M 198.441406 333.269531 L 584.898438 489.445312 L 427.597656 878.683594 L 41.140625 722.507812 Z M 198.441406 333.269531 " clip-rule="nonzero"/></clipPath><clipPath id="b37d83482c"><path d="M 336 441 L 555 441 L 555 656 L 336 656 Z M 336 441 " clip-rule="nonzero"/></clipPath><clipPath id="b975922a72"><path d="M 198.441406 333.269531 L 584.898438 489.445312 L 427.597656 878.683594 L 41.140625 722.507812 Z M 198.441406 333.269531 " clip-rule="nonzero"/></clipPath><clipPath id="7c73395add"><path d="M 198.441406 333.269531 L 584.898438 489.445312 L 427.597656 878.683594 L 41.140625 722.507812 Z M 198.441406 333.269531 " clip-rule="nonzero"/></clipPath><clipPath id="dc190a18ff"><path d="M 380.742188 407.140625 L 581.984375 488.46875 L 502.109375 686.121094 L 300.863281 604.792969 Z M 380.742188 407.140625 " clip-rule="nonzero"/></clipPath><clipPath id="b83ef81cda"><path d="M 341 445 L 549 445 L 549 650 L 341 650 Z M 341 445 " clip-rule="nonzero"/></clipPath><clipPath id="8a0f88ae27"><path d="M 198.441406 333.269531 L 584.898438 489.445312 L 427.597656 878.683594 L 41.140625 722.507812 Z M 198.441406 333.269531 " clip-rule="nonzero"/></clipPath><clipPath id="085e56c40b"><path d="M 198.441406 333.269531 L 584.898438 489.445312 L 427.597656 878.683594 L 41.140625 722.507812 Z M 198.441406 333.269531 " clip-rule="nonzero"/></clipPath><clipPath id="7782a77ac2"><path d="M 388 489 L 506 489 L 506 604 L 388 604 Z M 388 489 " clip-rule="nonzero"/></clipPath><clipPath id="47a9d9abe3"><path d="M 198.441406 333.269531 L 584.898438 489.445312 L 427.597656 878.683594 L 41.140625 722.507812 Z M 198.441406 333.269531 " clip-rule="nonzero"/></clipPath><clipPath id="4fd00a9970"><path d="M 198.441406 333.269531 L 584.898438 489.445312 L 427.597656 878.683594 L 41.140625 722.507812 Z M 198.441406 333.269531 " clip-rule="nonzero"/></clipPath><clipPath id="fda32f959b"><path d="M 395 495 L 498 495 L 498 597 L 395 597 Z M 395 495 " clip-rule="nonzero"/></clipPath><clipPath id="00bf29d6db"><path d="M 198.441406 333.269531 L 584.898438 489.445312 L 427.597656 878.683594 L 41.140625 722.507812 Z M 198.441406 333.269531 " clip-rule="nonzero"/></clipPath><clipPath id="5a205b27ac"><path d="M 198.441406 333.269531 L 584.898438 489.445312 L 427.597656 878.683594 L 41.140625 722.507812 Z M 198.441406 333.269531 " clip-rule="nonzero"/></clipPath><clipPath id="a5d252aa68"><path d="M 351 449 L 543 449 L 543 641 L 351 641 Z M 351 449 " clip-rule="nonzero"/></clipPath><clipPath id="46ed0e27b7"><path d="M 198.441406 333.269531 L 584.898438 489.445312 L 427.597656 878.683594 L 41.140625 722.507812 Z M 198.441406 333.269531 " clip-rule="nonzero"/></clipPath><clipPath id="eb2be05e90"><path d="M 198.441406 333.269531 L 584.898438 489.445312 L 427.597656 878.683594 L 41.140625 722.507812 Z M 198.441406 333.269531 " clip-rule="nonzero"/></clipPath><clipPath id="7f057cb26e"><path d="M 409 511 L 485 511 L 485 582 L 409 582 Z M 409 511 " clip-rule="nonzero"/></clipPath><clipPath id="593ed926b8"><path d="M 198.441406 333.269531 L 584.898438 489.445312 L 427.597656 878.683594 L 41.140625 722.507812 Z M 198.441406 333.269531 " clip-rule="nonzero"/></clipPath><clipPath id="4ebfb59ab0"><path d="M 198.441406 333.269531 L 584.898438 489.445312 L 427.597656 878.683594 L 41.140625 722.507812 Z M 198.441406 333.269531 " clip-rule="nonzero"/></clipPath><clipPath id="39e1e51fb4"><path d="M 402 502 L 492 502 L 492 590 L 402 590 Z M 402 502 " clip-rule="nonzero"/></clipPath><clipPath id="b30ae5b2a1"><path d="M 198.441406 333.269531 L 584.898438 489.445312 L 427.597656 878.683594 L 41.140625 722.507812 Z M 198.441406 333.269531 " clip-rule="nonzero"/></clipPath><clipPath id="73a332283e"><path d="M 198.441406 333.269531 L 584.898438 489.445312 L 427.597656 878.683594 L 41.140625 722.507812 Z M 198.441406 333.269531 " clip-rule="nonzero"/></clipPath><clipPath id="acf424eec2"><path d="M 417 518 L 476 518 L 476 576 L 417 576 Z M 417 518 " clip-rule="nonzero"/></clipPath><clipPath id="61b4f3e570"><path d="M 198.441406 333.269531 L 584.898438 489.445312 L 427.597656 878.683594 L 41.140625 722.507812 Z M 198.441406 333.269531 " clip-rule="nonzero"/></clipPath><clipPath id="e9c9739d0f"><path d="M 198.441406 333.269531 L 584.898438 489.445312 L 427.597656 878.683594 L 41.140625 722.507812 Z M 198.441406 333.269531 " clip-rule="nonzero"/></clipPath><clipPath id="c647a4daab"><path d="M 356 454 L 536 454 L 536 634 L 356 634 Z M 356 454 " clip-rule="nonzero"/></clipPath><clipPath id="4cd948103e"><path d="M 198.441406 333.269531 L 584.898438 489.445312 L 427.597656 878.683594 L 41.140625 722.507812 Z M 198.441406 333.269531 " clip-rule="nonzero"/></clipPath><clipPath id="7c15785588"><path d="M 198.441406 333.269531 L 584.898438 489.445312 L 427.597656 878.683594 L 41.140625 722.507812 Z M 198.441406 333.269531 " clip-rule="nonzero"/></clipPath><clipPath id="37db45cdde"><path d="M 365 465 L 528 465 L 528 627 L 365 627 Z M 365 465 " clip-rule="nonzero"/></clipPath><clipPath id="9a833aeb89"><path d="M 198.441406 333.269531 L 584.898438 489.445312 L 427.597656 878.683594 L 41.140625 722.507812 Z M 198.441406 333.269531 " clip-rule="nonzero"/></clipPath><clipPath id="85ee399ef8"><path d="M 198.441406 333.269531 L 584.898438 489.445312 L 427.597656 878.683594 L 41.140625 722.507812 Z M 198.441406 333.269531 " clip-rule="nonzero"/></clipPath><clipPath id="3577ecdafe"><path d="M 370 469 L 522 469 L 522 621 L 370 621 Z M 370 469 " clip-rule="nonzero"/></clipPath><clipPath id="a3d7cb16d2"><path d="M 198.441406 333.269531 L 584.898438 489.445312 L 427.597656 878.683594 L 41.140625 722.507812 Z M 198.441406 333.269531 " clip-rule="nonzero"/></clipPath><clipPath id="2cb30a1c5a"><path d="M 198.441406 333.269531 L 584.898438 489.445312 L 427.597656 878.683594 L 41.140625 722.507812 Z M 198.441406 333.269531 " clip-rule="nonzero"/></clipPath><clipPath id="588cacaccc"><path d="M 377 475 L 516 475 L 516 615 L 377 615 Z M 377 475 " clip-rule="nonzero"/></clipPath><clipPath id="99b7366ca0"><path d="M 198.441406 333.269531 L 584.898438 489.445312 L 427.597656 878.683594 L 41.140625 722.507812 Z M 198.441406 333.269531 " clip-rule="nonzero"/></clipPath><clipPath id="9eb559f0fd"><path d="M 198.441406 333.269531 L 584.898438 489.445312 L 427.597656 878.683594 L 41.140625 722.507812 Z M 198.441406 333.269531 " clip-rule="nonzero"/></clipPath><clipPath id="115d8c5474"><path d="M 380 480 L 511 480 L 511 611 L 380 611 Z M 380 480 " clip-rule="nonzero"/></clipPath><clipPath id="71e2858fa3"><path d="M 198.441406 333.269531 L 584.898438 489.445312 L 427.597656 878.683594 L 41.140625 722.507812 Z M 198.441406 333.269531 " clip-rule="nonzero"/></clipPath><clipPath id="ba4a5c4fd2"><path d="M 198.441406 333.269531 L 584.898438 489.445312 L 427.597656 878.683594 L 41.140625 722.507812 Z M 198.441406 333.269531 " clip-rule="nonzero"/></clipPath><clipPath id="e4c9859adf"><path d="M 191 365 L 250 365 L 250 423 L 191 423 Z M 191 365 " clip-rule="nonzero"/></clipPath><clipPath id="b91acb3fa0"><path d="M 198.441406 333.269531 L 584.898438 489.445312 L 427.597656 878.683594 L 41.140625 722.507812 Z M 198.441406 333.269531 " clip-rule="nonzero"/></clipPath><clipPath id="e59cd188fc"><path d="M 198.441406 333.269531 L 584.898438 489.445312 L 427.597656 878.683594 L 41.140625 722.507812 Z M 198.441406 333.269531 " clip-rule="nonzero"/></clipPath><clipPath id="f762467ce6"><path d="M 190 647 L 327 647 L 327 784 L 190 784 Z M 190 647 " clip-rule="nonzero"/></clipPath><clipPath id="2147a116f1"><path d="M 198.441406 333.269531 L 584.898438 489.445312 L 427.597656 878.683594 L 41.140625 722.507812 Z M 198.441406 333.269531 " clip-rule="nonzero"/></clipPath><clipPath id="a12d578372"><path d="M 198.441406 333.269531 L 584.898438 489.445312 L 427.597656 878.683594 L 41.140625 722.507812 Z M 198.441406 333.269531 " clip-rule="nonzero"/></clipPath><clipPath id="e17af77972"><path d="M 222.414062 626.152344 L 350.449219 677.894531 L 298.398438 806.695312 L 170.363281 754.957031 Z M 222.414062 626.152344 " clip-rule="nonzero"/></clipPath><clipPath id="78269583d3"><path d="M 198 231 L 415 231 L 415 451 L 198 451 Z M 198 231 " clip-rule="nonzero"/></clipPath><clipPath id="c68135d657"><path d="M 225.488281 577.914062 L 0.125 227.269531 L 353.292969 0.285156 L 578.65625 350.929688 Z M 225.488281 577.914062 " clip-rule="nonzero"/></clipPath><clipPath id="23a3caeb66"><path d="M 225.488281 577.914062 L 0.125 227.269531 L 353.292969 0.285156 L 578.65625 350.929688 Z M 225.488281 577.914062 " clip-rule="nonzero"/></clipPath><clipPath id="5b842281ff"><path d="M 299 35 L 363 35 L 363 100 L 299 100 Z M 299 35 " clip-rule="nonzero"/></clipPath><clipPath id="dba7dfd884"><path d="M 225.488281 577.914062 L 0.125 227.269531 L 353.292969 0.285156 L 578.65625 350.929688 Z M 225.488281 577.914062 " clip-rule="nonzero"/></clipPath><clipPath id="a5f4ac9359"><path d="M 225.488281 577.914062 L 0.125 227.269531 L 353.292969 0.285156 L 578.65625 350.929688 Z M 225.488281 577.914062 " clip-rule="nonzero"/></clipPath><clipPath id="6fac5a73c2"><path d="M 37 153 L 256 153 L 256 374 L 37 374 Z M 37 153 " clip-rule="nonzero"/></clipPath><clipPath id="d8a595474d"><path d="M 225.488281 577.914062 L 0.125 227.269531 L 353.292969 0.285156 L 578.65625 350.929688 Z M 225.488281 577.914062 " clip-rule="nonzero"/></clipPath><clipPath id="d8face84db"><path d="M 225.488281 577.914062 L 0.125 227.269531 L 353.292969 0.285156 L 578.65625 350.929688 Z M 225.488281 577.914062 " clip-rule="nonzero"/></clipPath><clipPath id="4b9e7d46e9"><path d="M 119.292969 412.34375 L 1.9375 229.75 L 181.273438 114.488281 L 298.632812 297.082031 Z M 119.292969 412.34375 " clip-rule="nonzero"/></clipPath><clipPath id="9ded05cd74"><path d="M 46 161 L 250 161 L 250 368 L 46 368 Z M 46 161 " clip-rule="nonzero"/></clipPath><clipPath id="ea44191565"><path d="M 225.488281 577.914062 L 0.125 227.269531 L 353.292969 0.285156 L 578.65625 350.929688 Z M 225.488281 577.914062 " clip-rule="nonzero"/></clipPath><clipPath id="47f1638086"><path d="M 225.488281 577.914062 L 0.125 227.269531 L 353.292969 0.285156 L 578.65625 350.929688 Z M 225.488281 577.914062 " clip-rule="nonzero"/></clipPath><clipPath id="d1f97ae3d5"><path d="M 86 203 L 204 203 L 204 321 L 86 321 Z M 86 203 " clip-rule="nonzero"/></clipPath><clipPath id="b00cf83b44"><path d="M 225.488281 577.914062 L 0.125 227.269531 L 353.292969 0.285156 L 578.65625 350.929688 Z M 225.488281 577.914062 " clip-rule="nonzero"/></clipPath><clipPath id="d814e16104"><path d="M 225.488281 577.914062 L 0.125 227.269531 L 353.292969 0.285156 L 578.65625 350.929688 Z M 225.488281 577.914062 " clip-rule="nonzero"/></clipPath><clipPath id="b428b06d20"><path d="M 95 211 L 196 211 L 196 314 L 95 314 Z M 95 211 " clip-rule="nonzero"/></clipPath><clipPath id="2ad33c00ca"><path d="M 225.488281 577.914062 L 0.125 227.269531 L 353.292969 0.285156 L 578.65625 350.929688 Z M 225.488281 577.914062 " clip-rule="nonzero"/></clipPath><clipPath id="073cd4b72b"><path d="M 225.488281 577.914062 L 0.125 227.269531 L 353.292969 0.285156 L 578.65625 350.929688 Z M 225.488281 577.914062 " clip-rule="nonzero"/></clipPath><clipPath id="d4ec6176cf"><path d="M 53 169 L 241 169 L 241 359 L 53 359 Z M 53 169 " clip-rule="nonzero"/></clipPath><clipPath id="b46e8e8f62"><path d="M 225.488281 577.914062 L 0.125 227.269531 L 353.292969 0.285156 L 578.65625 350.929688 Z M 225.488281 577.914062 " clip-rule="nonzero"/></clipPath><clipPath id="170e5a3446"><path d="M 225.488281 577.914062 L 0.125 227.269531 L 353.292969 0.285156 L 578.65625 350.929688 Z M 225.488281 577.914062 " clip-rule="nonzero"/></clipPath><clipPath id="57b5d3475d"><path d="M 107 225 L 183 225 L 183 298 L 107 298 Z M 107 225 " clip-rule="nonzero"/></clipPath><clipPath id="61684993a5"><path d="M 225.488281 577.914062 L 0.125 227.269531 L 353.292969 0.285156 L 578.65625 350.929688 Z M 225.488281 577.914062 " clip-rule="nonzero"/></clipPath><clipPath id="0a7b512040"><path d="M 225.488281 577.914062 L 0.125 227.269531 L 353.292969 0.285156 L 578.65625 350.929688 Z M 225.488281 577.914062 " clip-rule="nonzero"/></clipPath><clipPath id="dbdd3a8383"><path d="M 101 218 L 190 218 L 190 307 L 101 307 Z M 101 218 " clip-rule="nonzero"/></clipPath><clipPath id="464665a7ac"><path d="M 225.488281 577.914062 L 0.125 227.269531 L 353.292969 0.285156 L 578.65625 350.929688 Z M 225.488281 577.914062 " clip-rule="nonzero"/></clipPath><clipPath id="a7d40d674d"><path d="M 225.488281 577.914062 L 0.125 227.269531 L 353.292969 0.285156 L 578.65625 350.929688 Z M 225.488281 577.914062 " clip-rule="nonzero"/></clipPath><clipPath id="96d66766b4"><path d="M 118 232 L 176 232 L 176 290 L 118 290 Z M 118 232 " clip-rule="nonzero"/></clipPath><clipPath id="06694221ea"><path d="M 225.488281 577.914062 L 0.125 227.269531 L 353.292969 0.285156 L 578.65625 350.929688 Z M 225.488281 577.914062 " clip-rule="nonzero"/></clipPath><clipPath id="69ab590eb5"><path d="M 225.488281 577.914062 L 0.125 227.269531 L 353.292969 0.285156 L 578.65625 350.929688 Z M 225.488281 577.914062 " clip-rule="nonzero"/></clipPath><clipPath id="2cd20b5125"><path d="M 60 174 L 236 174 L 236 352 L 60 352 Z M 60 174 " clip-rule="nonzero"/></clipPath><clipPath id="9989c69905"><path d="M 225.488281 577.914062 L 0.125 227.269531 L 353.292969 0.285156 L 578.65625 350.929688 Z M 225.488281 577.914062 " clip-rule="nonzero"/></clipPath><clipPath id="84d785e32a"><path d="M 225.488281 577.914062 L 0.125 227.269531 L 353.292969 0.285156 L 578.65625 350.929688 Z M 225.488281 577.914062 " clip-rule="nonzero"/></clipPath><clipPath id="6f82f8c811"><path d="M 68 183 L 227 183 L 227 343 L 68 343 Z M 68 183 " clip-rule="nonzero"/></clipPath><clipPath id="5f6b0c356d"><path d="M 225.488281 577.914062 L 0.125 227.269531 L 353.292969 0.285156 L 578.65625 350.929688 Z M 225.488281 577.914062 " clip-rule="nonzero"/></clipPath><clipPath id="b3e8db8922"><path d="M 225.488281 577.914062 L 0.125 227.269531 L 353.292969 0.285156 L 578.65625 350.929688 Z M 225.488281 577.914062 " clip-rule="nonzero"/></clipPath><clipPath id="28f7136756"><path d="M 74 186 L 223 186 L 223 338 L 74 338 Z M 74 186 " clip-rule="nonzero"/></clipPath><clipPath id="ff347e7665"><path d="M 225.488281 577.914062 L 0.125 227.269531 L 353.292969 0.285156 L 578.65625 350.929688 Z M 225.488281 577.914062 " clip-rule="nonzero"/></clipPath><clipPath id="6cd6adf1cc"><path d="M 225.488281 577.914062 L 0.125 227.269531 L 353.292969 0.285156 L 578.65625 350.929688 Z M 225.488281 577.914062 " clip-rule="nonzero"/></clipPath><clipPath id="1d5fd50968"><path d="M 77 189 L 217 189 L 217 330 L 77 330 Z M 77 189 " clip-rule="nonzero"/></clipPath><clipPath id="44bd0e0a76"><path d="M 225.488281 577.914062 L 0.125 227.269531 L 353.292969 0.285156 L 578.65625 350.929688 Z M 225.488281 577.914062 " clip-rule="nonzero"/></clipPath><clipPath id="0b919e64b4"><path d="M 225.488281 577.914062 L 0.125 227.269531 L 353.292969 0.285156 L 578.65625 350.929688 Z M 225.488281 577.914062 " clip-rule="nonzero"/></clipPath><clipPath id="4507fd2eb9"><path d="M 80 193 L 213 193 L 213 327 L 80 327 Z M 80 193 " clip-rule="nonzero"/></clipPath><clipPath id="7746b672d5"><path d="M 225.488281 577.914062 L 0.125 227.269531 L 353.292969 0.285156 L 578.65625 350.929688 Z M 225.488281 577.914062 " clip-rule="nonzero"/></clipPath><clipPath id="c96d256ee6"><path d="M 225.488281 577.914062 L 0.125 227.269531 L 353.292969 0.285156 L 578.65625 350.929688 Z M 225.488281 577.914062 " clip-rule="nonzero"/></clipPath><clipPath id="5178cd9ecc"><path d="M 214 488 L 272 488 L 272 545 L 214 545 Z M 214 488 " clip-rule="nonzero"/></clipPath><clipPath id="14a62242cf"><path d="M 225.488281 577.914062 L 0.125 227.269531 L 353.292969 0.285156 L 578.65625 350.929688 Z M 225.488281 577.914062 " clip-rule="nonzero"/></clipPath><clipPath id="6f4b72f233"><path d="M 225.488281 577.914062 L 0.125 227.269531 L 353.292969 0.285156 L 578.65625 350.929688 Z M 225.488281 577.914062 " clip-rule="nonzero"/></clipPath><clipPath id="39a1d5ecf7"><path d="M 330 159 L 468 159 L 468 298 L 330 298 Z M 330 159 " clip-rule="nonzero"/></clipPath><clipPath id="32a44ad750"><path d="M 225.488281 577.914062 L 0.125 227.269531 L 353.292969 0.285156 L 578.65625 350.929688 Z M 225.488281 577.914062 " clip-rule="nonzero"/></clipPath><clipPath id="b82b0b354e"><path d="M 225.488281 577.914062 L 0.125 227.269531 L 353.292969 0.285156 L 578.65625 350.929688 Z M 225.488281 577.914062 " clip-rule="nonzero"/></clipPath><clipPath id="a893b255d8"><path d="M 375.015625 324.9375 L 300.351562 208.769531 L 417.21875 133.65625 L 491.882812 249.828125 Z M 375.015625 324.9375 " clip-rule="nonzero"/></clipPath></defs><g clip-path="url(#e1f39c0267)"><g clip-path="url(#ec88e102b8)"><g clip-path="url(#158c59a3d6)"><path fill="#87c2d3" d="M 228.84375 469.511719 C 351.152344 405.796875 470.496094 651.570312 278.558594 678.296875 C 161.304688 696.78125 118.421875 531.246094 216.898438 477.726562 L 228.84375 469.511719 " fill-opacity="1" fill-rule="nonzero"/></g></g></g><g clip-path="url(#45453bea6e)"><g clip-path="url(#c772a9a4a9)"><g clip-path="url(#e6dce66b3a)"><path fill="#3a3d4d" d="M 422.207031 839.757812 C 388.648438 862.53125 345.414062 794.792969 400.578125 780.453125 C 434.203125 771.0625 452.367188 817.960938 425.421875 836.945312 L 422.207031 839.757812 " fill-opacity="1" fill-rule="nonzero"/></g></g></g><g clip-path="url(#b37d83482c)"><g clip-path="url(#b975922a72)"><g clip-path="url(#7c73395add)"><g clip-path="url(#dc190a18ff)"><path fill="#3a3d4d" d="M 343.566406 511.570312 C 348.65625 490.371094 360.761719 471.917969 378.945312 459.730469 C 396.234375 448.148438 417.320312 443.230469 437.9375 443.125 C 478.84375 442.910156 523.828125 462.535156 542.570312 500.65625 C 552.65625 521.164062 552.738281 544.53125 546.492188 566.1875 C 542.332031 580.613281 535.433594 594.140625 527.398438 606.761719 C 519.179688 619.679688 509.199219 631 496.304688 639.402344 C 448.769531 670.375 384.144531 646.402344 355.246094 601.304688 C 346.488281 587.640625 341.179688 571.84375 339.859375 555.671875 C 338.648438 540.847656 341.945312 526.238281 343.566406 511.570312 C 343.707031 510.320312 340.5 509.898438 340.363281 511.125 C 339.027344 523.222656 336.417969 535.320312 336.359375 547.503906 C 336.292969 561.203125 339.238281 574.808594 344.652344 587.371094 C 355.074219 611.542969 374.855469 630.980469 398.152344 642.855469 C 420.953125 654.476562 447.894531 658.59375 472.832031 652.15625 C 501.695312 644.699219 521.632812 623.664062 535.964844 598.476562 C 548.417969 576.59375 556.527344 551.382812 553.328125 526.011719 C 550.777344 505.777344 540.382812 487.640625 525.613281 473.820312 C 495.65625 445.796875 449.296875 435.371094 409.71875 444.378906 C 393.757812 448.011719 378.566406 455.214844 366.339844 466.183594 C 353.113281 478.050781 344.488281 493.945312 340.363281 511.125 C 340.082031 512.289062 343.269531 512.816406 343.566406 511.570312 " fill-opacity="1" fill-rule="nonzero"/></g></g></g></g><g clip-path="url(#b83ef81cda)"><g clip-path="url(#8a0f88ae27)"><g clip-path="url(#085e56c40b)"><path fill="#3a3d4d" d="M 359.378906 492.152344 C 369.558594 472.296875 386.460938 457.464844 407.910156 450.988281 C 428.457031 444.78125 450.894531 446.820312 471.039062 453.53125 C 510.914062 466.8125 547.574219 502.457031 545.421875 547.0625 C 544.128906 573.832031 528.796875 597.488281 510.597656 616.175781 C 499.183594 627.90625 486.351562 637.753906 470.796875 643.265625 C 457.3125 648.039062 442.746094 648.867188 428.710938 646.363281 C 400.882812 641.402344 376.394531 622.929688 361.203125 599.496094 C 345.148438 574.730469 340.746094 543.992188 350.183594 515.949219 C 352.910156 507.847656 356.546875 499.984375 359.46875 491.925781 C 359.855469 490.855469 356.707031 490.253906 356.261719 491.476562 C 351.992188 503.257812 346.453125 514.664062 343.835938 526.96875 C 340.875 540.878906 341.402344 555.378906 344.800781 569.152344 C 351.40625 595.890625 369.464844 619.296875 392.566406 633.960938 C 415.152344 648.292969 442.902344 653.578125 468.8125 646.144531 C 483.507812 641.929688 496.660156 633.476562 507.640625 622.96875 C 518.496094 612.578125 528.382812 601.253906 535.929688 588.199219 C 547.253906 568.617188 551.878906 545.722656 546.171875 523.605469 C 540.988281 503.539062 527.839844 486.355469 511.898438 473.5 C 480.078125 447.84375 431.949219 435.945312 393.769531 454.046875 C 377.375 461.820312 364.585938 475.191406 356.355469 491.25 C 355.71875 492.488281 358.847656 493.1875 359.378906 492.152344 " fill-opacity="1" fill-rule="nonzero"/></g></g></g><g clip-path="url(#7782a77ac2)"><g clip-path="url(#47a9d9abe3)"><g clip-path="url(#4fd00a9970)"><path fill="#3a3d4d" d="M 393.855469 527.316406 C 399.332031 504.996094 418.683594 491.914062 441.050781 490.882812 C 461.800781 489.929688 484.257812 498.933594 495.566406 516.953125 C 509.785156 539.628906 498.238281 570.519531 481.09375 588.222656 C 460.167969 609.835938 426.101562 604.40625 406.605469 583.902344 C 399.375 576.300781 394.492188 566.738281 392.503906 556.453125 C 390.601562 546.621094 392.742188 537.078125 393.855469 527.316406 C 393.996094 526.070312 390.785156 525.644531 390.644531 526.871094 C 389.984375 532.683594 388.777344 538.484375 388.484375 544.320312 C 388.144531 551.144531 389.253906 558.003906 391.46875 564.449219 C 395.71875 576.804688 404.679688 587.207031 415.542969 594.265625 C 437.574219 608.585938 466.964844 607.46875 485.355469 587.832031 C 501.917969 570.148438 511.964844 540.679688 499.507812 518.230469 C 489.589844 500.363281 468.757812 490.820312 449.054688 489.222656 C 422.882812 487.101562 397.214844 500.117188 390.644531 526.871094 C 390.359375 528.035156 393.550781 528.558594 393.855469 527.316406 " fill-opacity="1" fill-rule="nonzero"/></g></g></g><g clip-path="url(#fda32f959b)"><g clip-path="url(#00bf29d6db)"><g clip-path="url(#5a205b27ac)"><path fill="#3a3d4d" d="M 406.070312 519.402344 C 417.125 497.984375 441.675781 493.105469 462.890625 501.746094 C 483.121094 509.984375 498.75 530.019531 493.578125 552.574219 C 490.402344 566.417969 479.847656 579.269531 468.484375 587.351562 C 456.050781 596.195312 440.34375 596.742188 426.84375 590.082031 C 414.121094 583.804688 404.570312 571.730469 400.726562 558.167969 C 398.761719 551.246094 398.628906 543.953125 399.988281 536.914062 C 401.167969 530.773438 404.035156 525.035156 406.164062 519.171875 C 406.550781 518.105469 403.402344 517.5 402.960938 518.726562 C 400.816406 524.621094 398.089844 530.308594 396.777344 536.46875 C 395.3125 543.367188 395.671875 550.570312 397.351562 557.390625 C 400.59375 570.59375 409.675781 582.09375 421.121094 589.214844 C 431.964844 595.964844 445.621094 598.582031 458.007812 594.929688 C 472.289062 590.726562 483.957031 578.929688 491.363281 566.335938 C 497.070312 556.628906 499.386719 545.269531 496.695312 534.246094 C 494.269531 524.308594 487.757812 515.804688 479.941406 509.421875 C 464.3125 496.667969 440.601562 491.09375 421.816406 499.878906 C 413.5625 503.730469 407.191406 510.464844 403.046875 518.496094 C 402.410156 519.734375 405.542969 520.433594 406.070312 519.402344 " fill-opacity="1" fill-rule="nonzero"/></g></g></g><g clip-path="url(#a5d252aa68)"><g clip-path="url(#46ed0e27b7)"><g clip-path="url(#eb2be05e90)"><path fill="#3a3d4d" d="M 383.457031 476.585938 C 400.21875 458.144531 423.757812 449.335938 448.492188 452.441406 C 472.210938 455.425781 494.328125 468.222656 510.875 485.140625 C 527.089844 501.71875 538.730469 523.769531 539.351562 547.269531 C 540.0625 574.414062 524.484375 597.5625 503.726562 613.730469 C 489.675781 624.671875 473.160156 633.992188 455.574219 637.476562 C 439.628906 640.632812 423.160156 638.230469 408.507812 631.339844 C 380.175781 618.011719 360.714844 588.988281 355.769531 558.5 C 353.175781 542.496094 355.066406 525.867188 361.238281 510.886719 C 366.492188 498.128906 375.625 487.769531 383.457031 476.585938 C 384.222656 475.496094 381.113281 474.710938 380.433594 475.683594 C 372.578125 486.902344 363.621094 497.253906 358.214844 509.980469 C 352.195312 524.128906 350.394531 539.648438 352.109375 554.863281 C 355.476562 584.800781 373.484375 613.03125 399.234375 628.636719 C 411.671875 636.171875 425.859375 640.335938 440.394531 640.683594 C 457.125 641.085938 472.71875 635.558594 487.179688 627.5625 C 511.632812 614.046875 534.128906 593.46875 540.753906 565.355469 C 551.699219 518.921875 514.332031 473.988281 473.515625 457.304688 C 458.210938 451.046875 441.378906 448.375 424.972656 450.90625 C 407.589844 453.589844 392.179688 462.757812 380.433594 475.683594 C 379.597656 476.605469 382.65625 477.472656 383.457031 476.585938 " fill-opacity="1" fill-rule="nonzero"/></g></g></g><g clip-path="url(#7f057cb26e)"><g clip-path="url(#593ed926b8)"><g clip-path="url(#4ebfb59ab0)"><path fill="#3a3d4d" d="M 414.097656 535.476562 C 420.390625 512.339844 449.746094 507.605469 468.148438 519.269531 C 477.445312 525.164062 482.226562 535.171875 480.726562 546.082031 C 478.75 560.386719 467.960938 575.558594 453.652344 579.273438 C 441.472656 582.4375 428.304688 577.289062 420.164062 568.046875 C 416.164062 563.5 413.6875 557.863281 412.792969 551.898438 C 411.960938 546.371094 413.378906 540.925781 414.097656 535.476562 C 414.261719 534.234375 411.054688 533.792969 410.890625 535.027344 C 410.101562 541.003906 408.847656 546.695312 409.757812 552.753906 C 410.71875 559.140625 413.988281 565.019531 418.324219 569.726562 C 426.738281 578.859375 439.710938 583.246094 451.933594 581.644531 C 475.40625 578.566406 494.078125 545.167969 478.332031 525.214844 C 461.363281 503.714844 418.609375 506.652344 410.890625 535.027344 C 410.582031 536.171875 413.761719 536.714844 414.097656 535.476562 " fill-opacity="1" fill-rule="nonzero"/></g></g></g><g clip-path="url(#39e1e51fb4)"><g clip-path="url(#b30ae5b2a1)"><g clip-path="url(#73a332283e)"><path fill="#3a3d4d" d="M 411.472656 522.902344 C 422.851562 500.984375 449.894531 500.230469 468.933594 512.421875 C 477.917969 518.175781 485.097656 526.933594 487.429688 537.484375 C 490.226562 550.15625 484.226562 562.394531 476.101562 571.769531 C 468.535156 580.5 458.9375 587.203125 447.078125 587.667969 C 436.859375 588.066406 427.121094 583.355469 419.675781 576.636719 C 412.144531 569.839844 407.195312 560.347656 405.804688 550.328125 C 404.417969 540.324219 408.253906 531.808594 411.5625 522.671875 C 411.949219 521.601562 408.800781 521 408.359375 522.226562 C 406.136719 528.351562 403.382812 534.144531 402.558594 540.683594 C 401.695312 547.527344 402.910156 554.53125 405.464844 560.894531 C 410.382812 573.160156 420.9375 582.761719 433.273438 587.214844 C 446.296875 591.914062 460.46875 589.128906 471.152344 580.519531 C 481.277344 572.367188 489.960938 560.339844 491.195312 547.109375 C 493.070312 527.011719 476.027344 511.273438 458.46875 505.242188 C 439.742188 498.808594 418.054688 503.492188 408.449219 521.996094 C 407.808594 523.230469 410.941406 523.929688 411.472656 522.902344 " fill-opacity="1" fill-rule="nonzero"/></g></g></g><g clip-path="url(#acf424eec2)"><g clip-path="url(#61b4f3e570)"><g clip-path="url(#e9c9739d0f)"><path fill="#3a3d4d" d="M 428.839844 527.140625 C 447.117188 507.46875 481.585938 534.59375 470.25 557.5 C 466.910156 564.253906 460.027344 569.109375 453.316406 572.097656 C 444.824219 575.886719 435.621094 573.460938 429.078125 567.199219 C 423.394531 561.75 420.3125 553.847656 420.433594 546.035156 C 420.550781 538.433594 424.699219 533.054688 428.839844 527.140625 C 429.605469 526.054688 426.496094 525.265625 425.816406 526.238281 C 421.6875 532.132812 417.921875 537.21875 417.277344 544.652344 C 416.644531 551.949219 419.386719 559.242188 423.753906 564.984375 C 427.953125 570.496094 434.125 574.140625 440.882812 575.445312 C 448.621094 576.9375 455.988281 573.960938 462.386719 569.839844 C 473.195312 562.878906 478.816406 550.914062 473.679688 538.628906 C 469.386719 528.363281 459.195312 520.878906 448.4375 518.773438 C 439.96875 517.117188 431.644531 519.960938 425.816406 526.238281 C 424.972656 527.148438 428.03125 528.015625 428.839844 527.140625 " fill-opacity="1" fill-rule="nonzero"/></g></g></g><g clip-path="url(#c647a4daab)"><g clip-path="url(#4cd948103e)"><g clip-path="url(#7c15785588)"><path fill="#3a3d4d" d="M 403.636719 468.421875 C 426.277344 453.109375 453.441406 452.480469 477.445312 465.085938 C 500.242188 477.058594 517.949219 498.796875 526.695312 522.839844 C 535.382812 546.738281 533.863281 573.628906 518.320312 594.363281 C 508.972656 606.835938 495.53125 615.585938 481.378906 621.699219 C 463.996094 629.207031 444.632812 634.003906 425.699219 630.949219 C 392.140625 625.539062 368.65625 595.679688 361.890625 563.804688 C 358.476562 547.738281 359.492188 530.808594 364.910156 515.308594 C 367.746094 507.203125 372.039062 499.65625 377.265625 492.867188 C 382.511719 486.050781 389.023438 481.289062 395.382812 475.691406 C 398.132812 473.265625 400.886719 470.84375 403.636719 468.421875 C 404.839844 467.363281 401.839844 466.394531 400.992188 467.136719 C 390.507812 476.371094 379.285156 484.441406 371.230469 496.078125 C 362.015625 509.382812 357.332031 525.421875 356.757812 541.507812 C 355.65625 572.539062 370.609375 604.421875 396.796875 621.582031 C 425.902344 640.652344 462.789062 634.660156 492.117188 619.171875 C 516.117188 606.5 533.527344 584.886719 535.203125 557.191406 C 538.121094 509.019531 496.269531 458.402344 447.824219 454.296875 C 431.117188 452.882812 414.800781 457.796875 400.992188 467.136719 C 399.710938 468.003906 402.710938 469.050781 403.636719 468.421875 " fill-opacity="1" fill-rule="nonzero"/></g></g></g><g clip-path="url(#37db45cdde)"><g clip-path="url(#9a833aeb89)"><g clip-path="url(#85ee399ef8)"><path fill="#3a3d4d" d="M 393.421875 488.359375 C 410.515625 469.601562 435.230469 463.585938 459.394531 470.5 C 482.316406 477.0625 502.5 493.558594 514.40625 514.089844 C 526.59375 535.105469 527.816406 560.457031 515.007812 581.46875 C 506.9375 594.71875 494.492188 604.746094 481.308594 612.589844 C 465.8125 621.800781 448.847656 627.074219 430.765625 623.96875 C 401.382812 618.925781 379.082031 593.058594 371.695312 565.207031 C 367.929688 551.015625 368.328125 535.925781 372.902344 521.984375 C 377.105469 509.160156 385.8125 499.207031 393.421875 488.359375 C 394.183594 487.269531 391.078125 486.480469 390.394531 487.457031 C 382.449219 498.78125 373.78125 509.070312 369.394531 522.453125 C 364.578125 537.148438 365.015625 553.175781 369.28125 567.933594 C 377.488281 596.335938 401.085938 620.273438 430.515625 625.75 C 446.382812 628.703125 462.664062 625.238281 476.828125 617.847656 C 490.710938 610.605469 503.746094 601.269531 513.496094 588.898438 C 528.476562 569.878906 531.167969 545.300781 522.027344 523.105469 C 505.296875 482.472656 451.882812 451.199219 409.660156 472.480469 C 402.320312 476.179688 395.914062 481.398438 390.394531 487.457031 C 389.554688 488.375 392.617188 489.242188 393.421875 488.359375 " fill-opacity="1" fill-rule="nonzero"/></g></g></g><g clip-path="url(#3577ecdafe)"><g clip-path="url(#a3d7cb16d2)"><g clip-path="url(#2cb30a1c5a)"><path fill="#3a3d4d" d="M 410.398438 481.515625 C 458.78125 448.890625 517.453125 500.652344 518.210938 551.65625 C 518.402344 564.296875 514.542969 576.59375 507.128906 586.824219 C 497.714844 599.8125 483.203125 608.027344 468.347656 613.296875 C 450.371094 619.675781 431.425781 621.738281 413.675781 613.558594 C 398.703125 606.652344 387.390625 593.464844 380.648438 578.644531 C 372.679688 561.121094 371.332031 540.746094 377.28125 522.421875 C 380.367188 512.921875 385.75 504.292969 392.550781 497.023438 C 397.902344 491.3125 404.519531 486.6875 410.398438 481.515625 C 411.601562 480.457031 408.601562 479.488281 407.757812 480.230469 C 396.933594 489.753906 385.878906 497.957031 378.816406 510.921875 C 371.246094 524.816406 369.082031 541.050781 371.152344 556.605469 C 375.261719 587.429688 397.847656 615.019531 429.226562 620.1875 C 446.570312 623.042969 464.75 618 480.464844 610.832031 C 493.40625 604.925781 505.128906 596.023438 512.753906 583.875 C 526.222656 562.421875 522.511719 535.304688 510.765625 514.023438 C 500.988281 496.304688 485.125 481.105469 466.105469 473.761719 C 446.441406 466.167969 425.261719 468.425781 407.757812 480.230469 C 406.472656 481.09375 409.472656 482.140625 410.398438 481.515625 " fill-opacity="1" fill-rule="nonzero"/></g></g></g><g clip-path="url(#588cacaccc)"><g clip-path="url(#99b7366ca0)"><g clip-path="url(#9eb559f0fd)"><path fill="#3a3d4d" d="M 431.121094 480.136719 C 485.117188 461.667969 527.308594 531.542969 507.28125 577.773438 C 494.574219 607.113281 457.855469 616.195312 428.734375 611.121094 C 396.40625 605.492188 378.613281 573.382812 380.613281 542.484375 C 381.550781 527.980469 386.972656 513.921875 396.253906 502.726562 C 405.625 491.429688 418.363281 486.429688 431.121094 480.136719 C 432.824219 479.296875 430.066406 478.050781 429.03125 478.558594 C 416.695312 484.640625 404.636719 489.464844 395.03125 499.773438 C 384.988281 510.558594 379.273438 524.863281 377.640625 539.390625 C 374.4375 567.96875 388.476562 597.941406 415.761719 609.234375 C 430.957031 615.519531 448.757812 615.109375 464.660156 612.078125 C 478.0625 609.523438 490.816406 603.65625 500.335938 593.738281 C 517.628906 575.722656 518.542969 548.113281 510.835938 525.601562 C 505.167969 509.070312 494.355469 493.839844 479.574219 484.3125 C 464.386719 474.523438 446.03125 472.746094 429.03125 478.558594 C 427.273438 479.164062 430.0625 480.496094 431.121094 480.136719 " fill-opacity="1" fill-rule="nonzero"/></g></g></g><g clip-path="url(#115d8c5474)"><g clip-path="url(#71e2858fa3)"><g clip-path="url(#ba4a5c4fd2)"><path fill="#3a3d4d" d="M 446.839844 482.039062 C 497.429688 477.363281 520.078125 542.675781 499.421875 581.449219 C 494.160156 591.324219 485.832031 599.199219 475.617188 603.769531 C 462.492188 609.644531 447.566406 609.367188 433.703125 606.742188 C 418.027344 603.777344 403.863281 597.046875 394.3125 583.894531 C 386.234375 572.765625 383.089844 558.675781 383.796875 545.101562 C 384.636719 528.867188 391.390625 513.070312 402.652344 501.351562 C 408.769531 494.984375 416.398438 490.195312 424.648438 487.136719 C 431.746094 484.503906 439.472656 483.691406 446.839844 482.039062 C 448.914062 481.574219 446.710938 479.988281 445.4375 480.273438 C 432.699219 483.128906 420.476562 484.890625 409.335938 492.289062 C 398.175781 499.703125 390.03125 510.917969 385.195312 523.300781 C 375.546875 548 380.628906 578.121094 401.714844 595.253906 C 413.496094 604.820312 429.164062 608.652344 443.992188 610.023438 C 456.527344 611.179688 469.496094 609.667969 480.792969 603.867188 C 500.542969 593.726562 509.871094 571.96875 510.332031 550.605469 C 510.722656 532.578125 505.054688 513.980469 493.574219 499.949219 C 481.71875 485.457031 463.960938 478.5625 445.4375 480.273438 C 443.335938 480.46875 445.59375 482.152344 446.839844 482.039062 " fill-opacity="1" fill-rule="nonzero"/></g></g></g><g clip-path="url(#e4c9859adf)"><g clip-path="url(#b91acb3fa0)"><g clip-path="url(#e59cd188fc)"><path fill="#f2ad5e" d="M 246.695312 382.039062 C 264.171875 413.632812 200.625 446.46875 192.382812 396.410156 C 186.777344 365.84375 229.820312 353.539062 244.46875 378.964844 L 246.695312 382.039062 " fill-opacity="1" fill-rule="nonzero"/></g></g></g><g clip-path="url(#f762467ce6)"><g clip-path="url(#2147a116f1)"><g clip-path="url(#a12d578372)"><g clip-path="url(#e17af77972)"><path fill="#f2ad5e" d="M 249.492188 651.171875 C 302.152344 638.207031 336.597656 704.765625 318.066406 748.5 C 313.332031 759.675781 304.816406 768.777344 294.078125 774.394531 C 279.667969 781.933594 262.847656 782.617188 246.984375 781.070312 C 231.085938 779.523438 216.59375 771.921875 206.824219 759.238281 C 198.027344 747.820312 194.050781 733.191406 194.054688 718.921875 C 194.058594 702.707031 199.660156 686.613281 210.039062 674.132812 C 215.640625 667.402344 222.789062 662.050781 230.664062 658.273438 C 236.78125 655.34375 243.503906 653.53125 249.835938 651.078125 C 251.585938 650.398438 248.800781 649.089844 247.742188 649.5 C 235.140625 654.382812 222.871094 658.054688 212.621094 667.375 C 202.246094 676.808594 195.539062 689.664062 192.519531 703.261719 C 186.523438 730.261719 196.519531 760.265625 220.851562 774.695312 C 234.605469 782.847656 251.613281 784.363281 267.269531 783.402344 C 280.574219 782.582031 293.839844 778.785156 304.582031 770.695312 C 323.519531 756.429688 328.84375 731.445312 325.1875 709.058594 C 322.226562 690.957031 313.234375 673.457031 299.304688 661.390625 C 285.128906 649.113281 266.210938 644.945312 248.089844 649.40625 C 246.027344 649.914062 248.21875 651.484375 249.492188 651.171875 " fill-opacity="1" fill-rule="nonzero"/></g></g></g></g><g clip-path="url(#78269583d3)"><g clip-path="url(#c68135d657)"><g clip-path="url(#23a3caeb66)"><path fill="#f2ad5e" d="M 279.324219 449.121094 C 142.675781 430.523438 187.136719 160.949219 359.285156 249.949219 C 465.691406 302.554688 405.128906 462.472656 293.824219 449.3125 L 279.324219 449.121094 " fill-opacity="1" fill-rule="nonzero"/></g></g></g><g clip-path="url(#5b842281ff)"><g clip-path="url(#dba7dfd884)"><g clip-path="url(#a5f4ac9359)"><path fill="#3a3d4d" d="M 335.21875 35.179688 C 375.769531 35.960938 371.957031 116.230469 318.636719 96.089844 C 285.765625 84.34375 298.011719 35.566406 330.972656 35.621094 L 335.21875 35.179688 " fill-opacity="1" fill-rule="nonzero"/></g></g></g><g clip-path="url(#6fac5a73c2)"><g clip-path="url(#d8a595474d)"><g clip-path="url(#d8face84db)"><g clip-path="url(#4b9e7d46e9)"><path fill="#3a3d4d" d="M 209.941406 348.542969 C 193.546875 362.914062 173.007812 370.992188 151.125 370.441406 C 130.320312 369.917969 110.265625 361.757812 93.371094 349.941406 C 59.847656 326.496094 34.453125 284.503906 41.15625 242.554688 C 44.761719 219.988281 58.1875 200.863281 75.792969 186.785156 C 87.519531 177.410156 100.960938 170.347656 114.808594 164.679688 C 128.976562 158.882812 143.660156 155.398438 159.039062 155.984375 C 215.738281 158.140625 254.660156 215.027344 252.214844 268.535156 C 251.476562 284.75 246.6875 300.710938 238.433594 314.675781 C 230.863281 327.476562 219.734375 337.503906 209.941406 348.542969 C 209.109375 349.484375 211.480469 351.679688 212.300781 350.757812 C 220.378906 341.652344 229.488281 333.28125 236.574219 323.363281 C 244.535156 312.21875 249.988281 299.410156 252.820312 286.027344 C 258.269531 260.273438 253.335938 232.980469 241.175781 209.835938 C 229.265625 187.183594 209.644531 168.265625 185.566406 159.125 C 157.695312 148.546875 129.273438 154.210938 103.027344 166.5 C 80.226562 177.179688 59.050781 193.078125 47.011719 215.644531 C 37.414062 233.636719 35.429688 254.445312 39.507812 274.257812 C 47.789062 314.433594 79.621094 349.714844 117.136719 365.210938 C 132.265625 371.457031 148.828125 374.351562 165.144531 372.453125 C 182.792969 370.398438 199.011719 362.402344 212.300781 350.757812 C 213.203125 349.96875 210.902344 347.699219 209.941406 348.542969 " fill-opacity="1" fill-rule="nonzero"/></g></g></g></g><g clip-path="url(#9ded05cd74)"><g clip-path="url(#ea44191565)"><g clip-path="url(#47f1638086)"><path fill="#3a3d4d" d="M 185.820312 355.269531 C 166.042969 365.601562 143.679688 367.953125 122.429688 360.859375 C 102.066406 354.0625 84.925781 339.441406 72.351562 322.332031 C 47.464844 288.46875 38.113281 238.195312 65.625 203.019531 C 82.136719 181.90625 108.3125 171.445312 133.960938 166.695312 C 150.054688 163.710938 166.214844 163.078125 182.097656 167.558594 C 195.863281 171.445312 208.234375 179.179688 218.246094 189.328125 C 238.105469 209.445312 247.433594 238.667969 246.308594 266.574219 C 245.117188 296.0625 230.964844 323.703125 207.070312 341.148438 C 200.164062 346.1875 192.652344 350.507812 185.613281 355.402344 C 184.683594 356.050781 186.90625 358.359375 187.972656 357.621094 C 198.265625 350.464844 209.371094 344.351562 218.613281 335.816406 C 229.0625 326.167969 237.003906 314.023438 242.179688 300.8125 C 252.226562 275.171875 250.996094 245.632812 240.597656 220.320312 C 230.433594 195.578125 210.828125 175.242188 185.382812 166.351562 C 170.949219 161.308594 155.328125 160.621094 140.296875 162.859375 C 125.433594 165.074219 110.824219 168.613281 97.125 174.910156 C 76.570312 184.363281 59.574219 200.382812 51.46875 221.738281 C 44.113281 241.117188 44.925781 262.738281 50.523438 282.4375 C 61.691406 321.757812 94.113281 359.261719 135.738281 366.523438 C 153.613281 369.644531 171.773438 366.113281 187.765625 357.753906 C 189.003906 357.105469 186.851562 354.730469 185.820312 355.269531 " fill-opacity="1" fill-rule="nonzero"/></g></g></g><g clip-path="url(#d1f97ae3d5)"><g clip-path="url(#b00cf83b44)"><g clip-path="url(#d814e16104)"><path fill="#3a3d4d" d="M 177.972656 306.652344 C 160.613281 321.714844 137.257812 321.222656 118.402344 309.148438 C 100.914062 297.949219 87.773438 277.628906 88.945312 256.386719 C 90.425781 229.664062 117.6875 211.109375 141.910156 206.554688 C 171.472656 200.988281 196.152344 225.09375 200.234375 253.089844 C 201.75 263.46875 200.214844 274.097656 195.898438 283.644531 C 191.773438 292.769531 184.515625 299.324219 177.972656 306.652344 C 177.140625 307.589844 179.511719 309.789062 180.335938 308.867188 C 184.230469 304.503906 188.566406 300.464844 192.175781 295.871094 C 196.390625 290.496094 199.449219 284.253906 201.359375 277.710938 C 205.023438 265.171875 203.714844 251.503906 198.917969 239.464844 C 189.199219 215.054688 164.558594 198.996094 138.203125 204.414062 C 114.472656 209.285156 89.253906 227.546875 86.464844 253.070312 C 84.246094 273.382812 95.746094 293.207031 110.910156 305.882812 C 131.054688 322.726562 159.527344 326.921875 180.335938 308.867188 C 181.242188 308.082031 178.941406 305.8125 177.972656 306.652344 " fill-opacity="1" fill-rule="nonzero"/></g></g></g><g clip-path="url(#b428b06d20)"><g clip-path="url(#2ad33c00ca)"><g clip-path="url(#073cd4b72b)"><path fill="#3a3d4d" d="M 163.429688 306.0625 C 142.039062 317.164062 119.175781 306.976562 106.84375 287.671875 C 95.082031 269.265625 93.886719 243.882812 111.132812 228.453125 C 121.722656 218.980469 137.757812 214.582031 151.703125 214.546875 C 166.960938 214.503906 180.101562 223.125 187.28125 236.359375 C 194.039062 248.828125 194.867188 264.203125 190.175781 277.496094 C 187.78125 284.28125 183.679688 290.3125 178.507812 295.273438 C 174 299.609375 168.34375 302.636719 163.222656 306.195312 C 162.289062 306.84375 164.511719 309.152344 165.582031 308.410156 C 170.730469 304.832031 176.242188 301.765625 180.871094 297.492188 C 186.050781 292.707031 189.914062 286.617188 192.480469 280.078125 C 197.457031 267.425781 196.683594 252.792969 191.449219 240.371094 C 186.492188 228.601562 176.851562 218.578125 164.632812 214.40625 C 150.542969 209.59375 134.207031 212.488281 120.890625 218.496094 C 110.625 223.125 102.171875 231.0625 98.007812 241.613281 C 94.25 251.132812 94.65625 261.835938 97.355469 271.558594 C 102.75 290.996094 118.890625 309.234375 139.300781 312.910156 C 148.265625 314.527344 157.355469 312.710938 165.375 308.546875 C 166.609375 307.902344 164.457031 305.523438 163.429688 306.0625 " fill-opacity="1" fill-rule="nonzero"/></g></g></g><g clip-path="url(#d4ec6176cf)"><g clip-path="url(#b46e8e8f62)"><g clip-path="url(#170e5a3446)"><path fill="#3a3d4d" d="M 157.171875 354.074219 C 132.839844 359.453125 108.535156 353.058594 90.132812 336.238281 C 72.492188 320.109375 61.820312 296.890625 58.078125 273.523438 C 54.410156 250.625 57.636719 225.902344 70.699219 206.355469 C 85.789062 183.785156 111.875 173.875 138.160156 172.660156 C 155.945312 171.835938 174.816406 173.765625 191.183594 181.074219 C 206.023438 187.703125 218.085938 199.171875 226.070312 213.261719 C 241.507812 240.496094 240.640625 275.433594 227.074219 303.179688 C 219.953125 317.746094 208.808594 330.230469 195.121094 338.898438 C 183.464844 346.28125 170.023438 349.464844 157.171875 354.074219 C 155.917969 354.523438 158 356.960938 159.117188 356.558594 C 172.011719 351.933594 185.300781 348.652344 197.066406 341.382812 C 210.148438 333.308594 220.578125 321.675781 227.964844 308.265625 C 242.5 281.875 244.09375 248.429688 232.082031 220.816406 C 226.277344 207.488281 217.097656 195.894531 205.429688 187.222656 C 192 177.230469 176.082031 172.738281 159.65625 170.917969 C 131.886719 167.835938 101.636719 171.652344 79.996094 190.777344 C 44.25 222.371094 48.816406 280.632812 72.511719 317.820312 C 81.390625 331.765625 93.589844 343.667969 108.449219 351.074219 C 124.191406 358.917969 142.066406 360.328125 159.117188 356.558594 C 160.335938 356.289062 158.335938 353.816406 157.171875 354.074219 " fill-opacity="1" fill-rule="nonzero"/></g></g></g><g clip-path="url(#57b5d3475d)"><g clip-path="url(#61684993a5)"><g clip-path="url(#0a7b512040)"><path fill="#3a3d4d" d="M 166.15625 288.300781 C 147.660156 303.558594 120.957031 290.476562 112.667969 270.324219 C 108.480469 260.148438 110.355469 249.214844 117.882812 241.171875 C 127.75 230.632812 145.320312 224.480469 159.148438 229.703125 C 170.921875 234.152344 178.699219 245.960938 180.007812 258.207031 C 180.652344 264.226562 179.417969 270.257812 176.703125 275.644531 C 174.191406 280.640625 169.890625 284.265625 166.15625 288.300781 C 165.304688 289.21875 167.667969 291.433594 168.515625 290.519531 C 172.613281 286.09375 176.921875 282.175781 179.675781 276.703125 C 182.582031 270.933594 183.304688 264.242188 182.484375 257.898438 C 180.882812 245.582031 172.828125 234.511719 161.921875 228.757812 C 140.976562 217.71875 106.449219 234.210938 107.785156 259.59375 C 109.226562 286.945312 145.828125 309.230469 168.515625 290.519531 C 169.429688 289.765625 167.144531 287.484375 166.15625 288.300781 " fill-opacity="1" fill-rule="nonzero"/></g></g></g><g clip-path="url(#dbdd3a8383)"><g clip-path="url(#464665a7ac)"><g clip-path="url(#a7d40d674d)"><path fill="#3a3d4d" d="M 161.039062 300.085938 C 139.09375 311.410156 116.578125 296.410156 108.074219 275.464844 C 104.058594 265.578125 103.253906 254.28125 107.441406 244.324219 C 112.472656 232.359375 124.4375 225.832031 136.484375 222.871094 C 147.707031 220.113281 159.410156 220.179688 169.363281 226.648438 C 177.933594 232.222656 183.167969 241.691406 185.367188 251.472656 C 187.59375 261.375 186.152344 271.980469 181.5 280.964844 C 176.859375 289.933594 168.808594 294.671875 160.832031 300.21875 C 159.902344 300.871094 162.125 303.179688 163.191406 302.433594 C 168.542969 298.714844 174.136719 295.574219 178.585938 290.710938 C 183.242188 285.625 186.292969 279.203125 187.882812 272.535156 C 190.945312 259.679688 187.875 245.746094 180.371094 234.988281 C 172.449219 223.628906 159.273438 217.722656 145.578125 218.582031 C 132.605469 219.394531 118.570312 224.199219 109.925781 234.292969 C 96.789062 249.617188 101.621094 272.308594 112.472656 287.367188 C 124.046875 303.433594 144.460938 312.132812 162.984375 302.570312 C 164.222656 301.933594 162.066406 299.554688 161.039062 300.085938 " fill-opacity="1" fill-rule="nonzero"/></g></g></g><g clip-path="url(#96d66766b4)"><g clip-path="url(#06694221ea)"><g clip-path="url(#69ab590eb5)"><path fill="#3a3d4d" d="M 149.308594 286.59375 C 123.027344 292.101562 110.542969 250.058594 133.027344 237.898438 C 139.652344 234.3125 148.074219 234.324219 155.28125 235.757812 C 164.402344 237.566406 170.515625 244.863281 172.238281 253.753906 C 173.738281 261.480469 171.6875 269.710938 167.078125 276.019531 C 162.59375 282.164062 156.101562 284.160156 149.308594 286.59375 C 148.054688 287.042969 150.136719 289.476562 151.253906 289.078125 C 158.03125 286.648438 164.042969 284.671875 168.859375 278.972656 C 173.585938 273.382812 175.5625 265.84375 175.308594 258.636719 C 175.0625 251.710938 172.128906 245.171875 167.363281 240.207031 C 161.90625 234.515625 154.171875 232.691406 146.570312 232.363281 C 133.726562 231.804688 122.226562 238.332031 119.332031 251.328125 C 116.90625 262.1875 120.90625 274.183594 128.476562 282.113281 C 134.433594 288.355469 142.871094 290.835938 151.253906 289.078125 C 152.46875 288.820312 150.476562 286.347656 149.308594 286.59375 " fill-opacity="1" fill-rule="nonzero"/></g></g></g><g clip-path="url(#2cd20b5125)"><g clip-path="url(#9989c69905)"><g clip-path="url(#84d785e32a)"><path fill="#3a3d4d" d="M 135.980469 349.089844 C 108.65625 348.519531 86.113281 333.347656 73.792969 309.199219 C 62.09375 286.261719 60.183594 258.289062 66.925781 233.609375 C 73.628906 209.082031 90.398438 188.003906 115.0625 180.046875 C 129.890625 175.261719 145.921875 175.875 161.003906 179.054688 C 179.53125 182.960938 198.113281 190.226562 211.808594 203.652344 C 236.085938 227.445312 238.019531 265.382812 225.140625 295.316406 C 218.648438 310.402344 208.046875 323.640625 194.671875 333.167969 C 187.679688 338.148438 179.816406 341.832031 171.628906 344.359375 C 163.410156 346.890625 155.34375 347.019531 146.917969 347.921875 C 143.273438 348.3125 139.625 348.699219 135.980469 349.089844 C 134.390625 349.261719 136.28125 351.785156 137.398438 351.667969 C 151.292969 350.179688 165.113281 350.070312 178.410156 345.21875 C 193.617188 339.675781 206.699219 329.289062 216.457031 316.484375 C 235.273438 291.78125 241.472656 257.121094 230 227.988281 C 217.246094 195.613281 183.667969 179.207031 150.777344 174.917969 C 123.867188 171.410156 97.175781 179.003906 79.8125 200.648438 C 49.621094 238.296875 54.5625 303.785156 91.75 335.109375 C 104.574219 345.910156 120.734375 351.320312 137.398438 351.667969 C 138.945312 351.699219 137.101562 349.113281 135.980469 349.089844 " fill-opacity="1" fill-rule="nonzero"/></g></g></g><g clip-path="url(#6f82f8c811)"><g clip-path="url(#5f6b0c356d)"><g clip-path="url(#b3e8db8922)"><path fill="#3a3d4d" d="M 155.835938 338.710938 C 131.046875 344.15625 107.394531 334.796875 91.660156 315.203125 C 76.730469 296.609375 69.777344 271.484375 71.90625 247.847656 C 74.089844 223.652344 87.730469 202.25 110.320312 192.484375 C 124.558594 186.328125 140.507812 185.324219 155.800781 186.535156 C 173.773438 187.960938 190.667969 193.449219 203.640625 206.425781 C 224.71875 227.507812 227.992188 261.507812 217.945312 288.507812 C 212.824219 302.269531 203.785156 314.359375 192 323.105469 C 181.167969 331.144531 168.3125 334.246094 155.835938 338.710938 C 154.582031 339.160156 156.664062 341.597656 157.785156 341.195312 C 170.8125 336.535156 183.828125 333.140625 195.136719 324.746094 C 207.554688 315.527344 216.449219 302.191406 221.488281 287.675781 C 231.1875 259.746094 225.742188 226.578125 204.875 205.113281 C 193.621094 193.542969 178.332031 186.972656 162.496094 184.828125 C 146.980469 182.726562 130.949219 182.820312 115.84375 187.296875 C 92.632812 194.175781 76.246094 212.6875 70.890625 236.085938 C 61.089844 278.921875 86.648438 335.296875 133.410156 342.300781 C 141.539062 343.515625 149.78125 342.953125 157.785156 341.195312 C 159 340.929688 157 338.453125 155.835938 338.710938 " fill-opacity="1" fill-rule="nonzero"/></g></g></g><g clip-path="url(#28f7136756)"><g clip-path="url(#ff347e7665)"><g clip-path="url(#6cd6adf1cc)"><path fill="#3a3d4d" d="M 138.023438 334.496094 C 79.679688 333.199219 61.664062 257.0625 90.492188 214.980469 C 97.632812 204.550781 107.886719 196.734375 119.84375 192.664062 C 135.03125 187.496094 151.625 189.167969 166.792969 193.441406 C 185.15625 198.613281 201.816406 207.867188 211.582031 224.792969 C 219.820312 239.078125 221.441406 256.375 218.390625 272.367188 C 214.78125 291.277344 204.113281 308.691406 188.679688 320.21875 C 180.675781 326.191406 171.300781 330.128906 161.546875 332.140625 C 153.882812 333.714844 145.808594 333.667969 138.023438 334.496094 C 136.425781 334.664062 138.316406 337.1875 139.4375 337.070312 C 153.773438 335.542969 167.535156 335.226562 180.789062 328.722656 C 194.988281 321.75 206.128906 309.742188 213.421875 295.84375 C 227.863281 268.304688 225.351562 232.738281 202.714844 210.402344 C 190.203125 198.054688 172.449219 191.679688 155.480469 188.457031 C 141.5 185.808594 126.792969 186.308594 113.550781 191.824219 C 90.167969 201.5625 77.539062 225.84375 74.84375 250.003906 C 72.59375 270.113281 76.773438 291.683594 88.0625 308.664062 C 99.730469 326.214844 118.328125 336.601562 139.4375 337.070312 C 140.984375 337.105469 139.140625 334.519531 138.023438 334.496094 " fill-opacity="1" fill-rule="nonzero"/></g></g></g><g clip-path="url(#1d5fd50968)"><g clip-path="url(#44bd0e0a76)"><g clip-path="url(#0b919e64b4)"><path fill="#3a3d4d" d="M 120.304688 323.65625 C 65.554688 307.5625 71.453125 226.152344 114.496094 199.964844 C 141.8125 183.347656 177.03125 197.132812 197.882812 218.089844 C 221.027344 241.347656 217.015625 277.839844 197.542969 301.914062 C 188.402344 313.214844 175.859375 321.558594 161.816406 325.34375 C 147.640625 329.15625 134.355469 325.886719 120.304688 323.65625 C 118.429688 323.359375 119.964844 325.96875 121.101562 326.152344 C 134.683594 328.308594 147.316406 331.332031 161.109375 328.460938 C 175.539062 325.453125 188.464844 317.074219 198.179688 306.15625 C 217.300781 284.671875 223.140625 252.09375 207.382812 227.121094 C 198.605469 213.210938 183.835938 203.273438 169.101562 196.5625 C 156.683594 190.914062 142.882812 188.339844 129.386719 190.941406 C 104.859375 195.664062 88.175781 217.679688 81.472656 240.511719 C 76.554688 257.277344 76.589844 275.960938 83.15625 292.269531 C 89.902344 309.035156 103.863281 321.082031 121.101562 326.152344 C 122.886719 326.675781 121.378906 323.972656 120.304688 323.65625 " fill-opacity="1" fill-rule="nonzero"/></g></g></g><g clip-path="url(#4507fd2eb9)"><g clip-path="url(#7746b672d5)"><g clip-path="url(#c96d256ee6)"><path fill="#3a3d4d" d="M 108.570312 313.027344 C 64.566406 287.640625 83.78125 221.234375 123.035156 201.503906 C 133.03125 196.476562 144.378906 194.859375 155.359375 197.023438 C 169.46875 199.800781 181.492188 208.648438 191.296875 218.796875 C 202.382812 230.265625 210.0625 243.9375 210.265625 260.191406 C 210.4375 273.945312 204.867188 287.261719 196.457031 297.941406 C 186.394531 310.710938 171.757812 319.707031 155.796875 322.773438 C 147.132812 324.4375 138.136719 323.945312 129.632812 321.679688 C 122.320312 319.730469 115.539062 315.933594 108.570312 313.027344 C 106.609375 312.210938 107.492188 314.777344 108.695312 315.28125 C 120.746094 320.300781 131.742188 325.921875 145.109375 326.3125 C 158.503906 326.703125 171.628906 322.246094 182.726562 314.929688 C 204.863281 300.335938 218.105469 272.808594 210.777344 246.644531 C 206.683594 232.03125 196.105469 219.855469 184.792969 210.175781 C 175.222656 201.992188 163.761719 195.738281 151.1875 193.953125 C 129.207031 190.832031 109.027344 203.210938 96.316406 220.386719 C 85.59375 234.882812 79.480469 253.335938 80.753906 271.421875 C 82.066406 290.101562 92.582031 305.984375 108.695312 315.28125 C 110.523438 316.332031 109.652344 313.65625 108.570312 313.027344 " fill-opacity="1" fill-rule="nonzero"/></g></g></g><g clip-path="url(#5178cd9ecc)"><g clip-path="url(#14a62242cf)"><g clip-path="url(#6f4b72f233)"><path fill="#6ca7b7" d="M 214.246094 510.234375 C 218.21875 474.351562 289.066406 484.226562 266.890625 529.859375 C 253.816406 558.054688 211.570312 543.246094 214.289062 514.027344 L 214.246094 510.234375 " fill-opacity="1" fill-rule="nonzero"/></g></g></g><g clip-path="url(#39a1d5ecf7)"><g clip-path="url(#32a44ad750)"><g clip-path="url(#b82b0b354e)"><g clip-path="url(#a893b255d8)"><path fill="#6ca7b7" d="M 367.355469 288.878906 C 316.871094 269.054688 327.175781 194.828125 367.558594 169.816406 C 377.875 163.429688 390.085938 160.910156 402.097656 162.527344 C 418.214844 164.691406 432.34375 173.84375 444.402344 184.265625 C 456.488281 194.707031 463.933594 209.28125 464.585938 225.277344 C 465.175781 239.679688 459.980469 253.921875 451.734375 265.566406 C 442.367188 278.804688 428.503906 288.710938 412.820312 292.910156 C 404.363281 295.171875 395.4375 295.414062 386.828125 293.949219 C 380.140625 292.808594 373.605469 290.40625 367.015625 288.753906 C 365.199219 288.300781 366.71875 290.976562 367.816406 291.25 C 380.925781 294.542969 393.0625 298.625 406.8125 296.933594 C 420.730469 295.222656 433.628906 288.601562 443.945312 279.242188 C 464.429688 260.660156 473.589844 230.390625 462.054688 204.558594 C 455.535156 189.960938 442.523438 178.902344 429.183594 170.652344 C 417.847656 163.640625 404.824219 159.078125 391.382812 159.480469 C 367.6875 160.195312 348.910156 177.519531 338.972656 197.910156 C 330.9375 214.398438 328.175781 233.878906 332.582031 251.773438 C 337.070312 269.980469 350.109375 284.308594 367.480469 291.128906 C 369.453125 291.90625 368.574219 289.359375 367.355469 288.878906 " fill-opacity="1" fill-rule="nonzero"/></g></g></g></g></svg>